<svg id="5017765d-828e-43bc-8cac-7adec660181b" data-name="Layer 1" xmlns="http://www.w3.org/2000/svg" xmlns:xlink="http://www.w3.org/1999/xlink" viewBox="0 0 66.24 84.17">
  <defs>
    <clipPath id="6b7c763a-cb3a-4fe2-b603-5b125029765f" transform="translate(0 0)">
      <rect id="da8d35c0-d350-4ab9-8b6c-2cd37b9df46f" data-name="SVGID" width="66.24" height="84.17" style="fill: none"/>
    </clipPath>
  </defs>
  <title>challenge</title>
  <g style="clip-path: url(#6b7c763a-cb3a-4fe2-b603-5b125029765f)">
    <path d="M59.76,84.17H6.48A6.4,6.4,0,0,1,0,77.87V6.3A6.4,6.4,0,0,1,6.48,0H59.76a6.4,6.4,0,0,1,6.48,6.3V77.87a6.4,6.4,0,0,1-6.48,6.3M6.48,2.66A3.69,3.69,0,0,0,2.74,6.3V77.87a3.69,3.69,0,0,0,3.74,3.64H59.76a3.69,3.69,0,0,0,3.74-3.64V6.3a3.7,3.7,0,0,0-3.74-3.64Z" transform="translate(0 0)" style="fill: #d9e842"/>
    <path d="M49.1,74.9A1.39,1.39,0,0,1,48,74.37L46.3,72.19l-2.6,1.06a1.41,1.41,0,0,1-1.22-.08,1.34,1.34,0,0,1-.67-1l-.36-2.73-2.79-.34a1.41,1.41,0,0,1-1-.66,1.29,1.29,0,0,1-.07-1.18l1.09-2.53-2.25-1.66A1.33,1.33,0,0,1,35.87,62,1.31,1.31,0,0,1,36.41,61l2.25-1.66-1.09-2.53a1.29,1.29,0,0,1,.07-1.18,1.38,1.38,0,0,1,1-.66l2.79-.35.36-2.72a1.32,1.32,0,0,1,.67-1,1.41,1.41,0,0,1,1.22-.08l2.6,1.06L48,49.69a1.39,1.39,0,0,1,1.09-.53,1.4,1.4,0,0,1,1.09.53l1.7,2.18,2.61-1.06a1.39,1.39,0,0,1,1.21.08,1.3,1.3,0,0,1,.67,1l.36,2.72,2.8.35a1.37,1.37,0,0,1,1,.66,1.33,1.33,0,0,1,.08,1.18l-1.09,2.53L61.78,61A1.31,1.31,0,0,1,62.32,62a1.33,1.33,0,0,1-.54,1.06l-2.24,1.66,1.09,2.53a1.33,1.33,0,0,1-.08,1.18,1.39,1.39,0,0,1-1,.66l-2.8.34-.36,2.73a1.32,1.32,0,0,1-.67,1,1.39,1.39,0,0,1-1.21.08l-2.61-1.06-1.7,2.18a1.4,1.4,0,0,1-1.09.53m-2.35-5.67a1.4,1.4,0,0,1,1.09.53l1.26,1.61,1.26-1.61A1.38,1.38,0,0,1,52,69.33l1.93.79.26-2A1.36,1.36,0,0,1,55.34,67l2.07-.25-.81-1.87A1.3,1.3,0,0,1,57,63.26L58.7,62,57,60.8a1.3,1.3,0,0,1-.44-1.57l.81-1.87-2.07-.26A1.35,1.35,0,0,1,54.16,56l-.26-2L52,54.72a1.38,1.38,0,0,1-1.61-.42L49.1,52.69,47.84,54.3a1.39,1.39,0,0,1-1.62.42l-1.92-.78L44,56a1.33,1.33,0,0,1-1.18,1.15l-2.07.26.81,1.87a1.31,1.31,0,0,1-.43,1.57L39.5,62l1.66,1.23a1.31,1.31,0,0,1,.43,1.57l-.81,1.87,2.07.25A1.34,1.34,0,0,1,44,68.11l.27,2,1.92-.79a1.39,1.39,0,0,1,.53-.1" transform="translate(0 0)" style="fill: #d9e842"/>
    <path d="M47.53,18.13H11.66a1.33,1.33,0,1,1,0-2.66H47.53a1.33,1.33,0,1,1,0,2.66" transform="translate(0 0)" style="fill: #d9e842"/>
    <path d="M47.53,29.67H11.66a1.34,1.34,0,1,1,0-2.67H47.53a1.34,1.34,0,1,1,0,2.67" transform="translate(0 0)" style="fill: #d9e842"/>
    <path d="M47.53,41.2H11.66a1.33,1.33,0,1,1,0-2.66H47.53a1.33,1.33,0,1,1,0,2.66" transform="translate(0 0)" style="fill: #d9e842"/>
    <path d="M42.67,52.74h-31a1.33,1.33,0,1,1,0-2.66h31a1.33,1.33,0,1,1,0,2.66" transform="translate(0 0)" style="fill: #d9e842"/>
    <path d="M33.12,64.27H11.66a1.33,1.33,0,1,1,0-2.66H33.12a1.33,1.33,0,1,1,0,2.66" transform="translate(0 0)" style="fill: #d9e842"/>
  </g>
</svg>
