<svg id="1a2aa8c8-bb73-4f1d-9fae-2f906e77fc2f" data-name="Layer 1" xmlns="http://www.w3.org/2000/svg" viewBox="0 0 1436.84 487.33">
  <title>logo-tagline</title>
  <g>
    <path d="M853.81,355h-3.75v25.75h3.11c7,0,9.57-2.59,9.57-12v-3C862.74,359,861.45,355,853.81,355Z" style="fill: #d8e148"/>
    <path d="M519.66,354.86c-4.78,0-7.37,3.49-7.37,10.73v43.47c0,7.24,2.59,10.61,7.37,10.61,5.18,0,7.51-3.24,7.51-10.74V365.46C527.17,358.61,525.1,354.86,519.66,354.86Z" style="fill: #d8e148"/>
    <path d="M1115.78,356.67c-.26,7.11-3,25.61-4.66,38.42h10.09c-2.07-14.75-3.88-28.72-4.91-38.42Z" style="fill: #d8e148"/>
    <path d="M800.9,356.67c-.26,7.11-3,25.61-4.65,38.42h10.09c-2.07-14.75-3.89-28.72-4.92-38.42Z" style="fill: #d8e148"/>
    <path d="M978,355.5h-4.26V419H978c8.8,0,10.09-5.56,10.09-14.49V368.44C988.09,360.55,986.8,355.5,978,355.5Z" style="fill: #d8e148"/>
    <path d="M1314.74,355H1311v25.75h3.1c7,0,9.58-2.59,9.58-12v-3C1323.67,359,1322.37,355,1314.74,355Z" style="fill: #d8e148"/>
    <path d="M1294.93,307.69l43-20.75-99.27,1.33v22.25H391.89L369.67,480.38l570.22-10.23-48.51,17.18,522.07-21,23.39-163.62ZM540.75,407.25c0,16.56-7,24.45-21.73,24.45-14,0-20.31-8-20.31-24.19V366.89c0-16.56,8.27-24.19,21.21-24.19s20.83,7.63,20.83,24.19Zm55.37,2.2c0,13.71-6.08,22.25-20.57,22.25-13.71,0-20.31-7.51-20.31-22.25V344h13.32v65.72c0,6.33,2.07,10,7.25,10s7-4.14,7-10V344h13.33Zm52.26-53h-14v74H621.08v-74H607.24V344h41.14Zm27.81,75.29c-16,0-19.92-10.22-19.92-21.61v-5.17H669.6v5.43c0,6.34,1.94,10,7,10s6.6-4.91,6.6-10.48c0-9.31-2.07-12.16-11.26-19.53s-14.35-12-14.35-24.84c0-11.38,3.49-22.89,19.14-22.89,15.91,0,18.37,11.38,18.37,20.82v4.66H681.89v-4.27c0-6.08-1-9.7-5.44-9.7s-5.56,3.75-5.56,9.44c0,6.21,1.16,9.19,8.8,14.75,12.93,9.57,16.94,15,16.94,29.5C696.63,420.05,692.36,431.7,676.19,431.7Zm90.69-1.3H754.2V398.19c0-14.62.13-32.86.39-42.82h-.13c-1.94,15-6.73,50.07-10.48,75H731.43c-2.84-22.51-7.63-59.37-9.7-75.16h-.26c.26,10.09.78,29.63.78,44.5V430.4H710.09V344H730c3.36,22,6.73,46.57,7.89,58.73H738c1.42-12.29,6.21-38,9.57-58.73h19.28Zm44.37,0-3.36-23.15H794.56l-3,23.15H778L792,344h18.75l14.49,86.41Zm64.94-62.35c0,13.32-5.56,16.69-8.79,18.11,4.91,2.33,7.89,5.95,7.89,17.72,0,7.25-.13,21.35.77,26.52H863.13c-1-5.17-.91-19.4-.91-25.74,0-10.48-1.29-12.94-9.05-12.94h-3.11V430.4H836.74V344h18.5c13.19,0,21,5.3,21,20.83Zm51.1-11.64h-14v74H900v-74H886.15V344h41.14Zm74.39,46.31c0,13.19-2.2,27.68-22.77,27.68h-18.5V344h18.5c18.37,0,22.77,9.44,22.77,25.48Zm28.46,27.68h-13.33V344h13.33Zm32.73,1.3c-16,0-19.93-10.22-19.93-21.61v-5.17h13.33v5.43c0,6.34,1.94,10,7,10s6.6-4.91,6.6-10.48c0-9.31-2.07-12.16-11.25-19.53s-14.36-12-14.36-24.84c0-11.38,3.49-22.89,19.14-22.89,15.92,0,18.37,11.38,18.37,20.82v4.66h-13.19v-4.27c0-6.08-1-9.7-5.43-9.7s-5.57,3.75-5.57,9.44c0,6.21,1.17,9.19,8.8,14.75,12.94,9.57,17,15,17,29.5C1083.31,420.05,1079,431.7,1062.87,431.7Zm63.26-1.3-3.37-23.15h-13.32l-3,23.15h-13.58l14-86.41h18.76l14.49,86.41Zm44.11,1.3c-16,0-19.92-10.22-19.92-21.61v-5.17h13.32v5.43c0,6.34,1.94,10,7,10s6.59-4.91,6.59-10.48c0-9.31-2.07-12.16-11.25-19.53s-14.36-12-14.36-24.84c0-11.38,3.49-22.89,19.15-22.89,15.91,0,18.37,11.38,18.37,20.82v4.66h-13.2v-4.27c0-6.08-1-9.7-5.43-9.7s-5.56,3.75-5.56,9.44c0,6.21,1.16,9.19,8.79,14.75,12.94,9.57,17,15,17,29.5C1190.68,420.05,1186.41,431.7,1170.24,431.7ZM1240,356.41h-14v74h-13.33v-74h-13.84V344H1240Zm44.5,74h-33.64V344h33.38v12.42h-20v22.25h19V391h-19v27.16h22Zm52.65-62.35c0,13.32-5.56,16.69-8.8,18.11,4.92,2.33,7.9,5.95,7.9,17.72,0,7.25-.13,21.35.77,26.52h-12.94c-1-5.17-.9-19.4-.9-25.74,0-10.48-1.29-12.94-9.06-12.94H1311V430.4h-13.33V344h18.5c13.2,0,21,5.3,21,20.83Z" style="fill: #d8e148"/>
  </g>
  <g>
    <path d="M1238.62,0H0V310.52H1238.62Zm-22,288.56H22V22H1216.66Z" style="fill: #474747"/>
    <polygon points="134.19 169.55 175.8 169.55 175.8 247.16 206.95 247.16 206.95 74.33 175.8 74.33 175.8 142.75 134.19 142.75 134.19 74.33 103.3 74.33 103.3 247.16 134.19 247.16 134.19 169.55" style="fill: #474747"/>
    <polygon points="996.97 220.61 934.68 220.61 934.68 170.32 990.34 170.32 990.34 143.51 934.68 143.51 934.68 101.39 992.89 101.39 992.89 74.33 904.3 74.33 904.3 247.16 993.14 247.16 996.97 220.61" style="fill: #474747"/>
    <path d="M796.59,173.38h13.27c19.66,0,25,7.92,25,31.15v6.12c0,14.81.26,28.6,2.81,36.51h29.87c-1.28-9.19-2.3-16.59-2.3-36.25V204c0-25.53-6.38-36.76-19.65-43.15,8.93-3.57,22.46-14.29,22.46-39.32,0-30.63-17.87-47.22-49.27-47.22H766V247.16h30.64Zm0-74H814.2c15.83,0,23,8.69,23,23.75,0,17.36-7.4,25.27-26,25.27H796.59Z" style="fill: #474747"/>
    <path d="M275.6,203.76h40.08l8.43,43.4h32.42L316.19,74.33H276.11L236,247.16h30.89ZM295,103.17h.76c2.81,16.34,7.91,40.59,14.29,73.79H281C287.35,145,293,119,295,103.17Z" style="fill: #474747"/>
    <path d="M1135.32,157.3c0-54.38-17.35-83-61.78-83h-44.93V247.16h42.64C1118.73,247.16,1135.32,215.51,1135.32,157.3Zm-75.56,64.59V100.11H1071c25,0,32.42,17.62,32.42,57.19,0,46.46-8.42,64.59-32.68,64.59Z" style="fill: #474747"/>
    <path d="M550.26,247.16c6.64-33.19,18.38-88.07,23.24-121.78h.5c4.6,33.2,15.84,85.79,22.47,121.78H627.1L662.34,74.33H631.45c-4.35,32.93-14.81,91.9-18.64,128.15h-.51c-4.34-32.93-16.85-94.2-23.23-128.15H561.5c-6.9,37.78-19.15,96.24-24.26,129.69H537c-2.56-32.17-11-88.85-17.11-129.69H486.69l32.94,172.83Z" style="fill: #474747"/>
    <path d="M397.62,186.14v61h31.15v-60.5a16.17,16.17,0,0,1,1-5.87L473.7,74.33H441c-8.68,25.78-20.42,58.21-26.81,79.39-5.1-18.89-17.1-52.33-26.81-79.39H352.94l43.66,106.2A14.63,14.63,0,0,1,397.62,186.14Z" style="fill: #474747"/>
    <rect x="691.67" y="74.33" width="30.89" height="172.83" style="fill: #474747"/>
    <path d="M519.92,342.7c-12.94,0-21.21,7.63-21.21,24.19v40.62c0,16.17,6.33,24.19,20.31,24.19,14.74,0,21.73-7.89,21.73-24.45V366.89C540.75,350.33,533,342.7,519.92,342.7Zm7.25,66.23c0,7.5-2.33,10.74-7.51,10.74-4.78,0-7.37-3.37-7.37-10.61V365.59c0-7.24,2.59-10.73,7.37-10.73,5.44,0,7.51,3.75,7.51,10.6Z" style="fill: #474747"/>
    <path d="M582.79,409.71c0,5.82-1.68,10-7,10s-7.25-3.63-7.25-10V344H555.24v65.46c0,14.74,6.6,22.25,20.31,22.25,14.49,0,20.57-8.54,20.57-22.25V344H582.79Z" style="fill: #474747"/>
    <polygon points="607.24 356.41 621.08 356.41 621.08 430.4 634.41 430.4 634.41 356.41 648.38 356.41 648.38 343.99 607.24 343.99 607.24 356.41" style="fill: #474747"/>
    <path d="M679.69,378.27c-7.64-5.56-8.8-8.54-8.8-14.75,0-5.69,1.16-9.44,5.56-9.44s5.44,3.62,5.44,9.7v4.27h13.19v-4.66c0-9.44-2.46-20.82-18.37-20.82-15.65,0-19.14,11.51-19.14,22.89,0,12.81,5,17.47,14.35,24.84s11.26,10.22,11.26,19.53c0,5.57-1.42,10.48-6.6,10.48s-7-3.62-7-10v-5.43H656.27v5.17c0,11.39,3.88,21.61,19.92,21.61s20.44-11.65,20.44-23.93C696.63,393.28,692.62,387.84,679.69,378.27Z" style="fill: #474747"/>
    <path d="M738,402.72h-.13C736.74,390.56,733.37,366,730,344H710.09V430.4h12.16V399.74c0-14.87-.52-34.41-.78-44.5h.26c2.07,15.79,6.86,52.65,9.7,75.16H744c3.75-25,8.54-60,10.48-75h.13c-.26,10-.39,28.2-.39,42.82V430.4h12.68V344H747.6C744.24,364.69,739.45,390.43,738,402.72Z" style="fill: #474747"/>
    <path d="M792,344,778,430.4h13.59l3-23.15h13.33l3.36,23.15h14L810.73,344Zm4.27,51.1c1.68-12.81,4.39-31.31,4.65-38.42h.52c1,9.7,2.85,23.67,4.92,38.42Z" style="fill: #474747"/>
    <path d="M855.24,344h-18.5V430.4h13.32V391.72h3.11c7.76,0,9.05,2.46,9.05,12.94,0,6.34-.13,20.57.91,25.74h12.93c-.9-5.17-.77-19.27-.77-26.52,0-11.77-3-15.39-7.89-17.72,3.23-1.42,8.79-4.79,8.79-18.11v-3.23C876.19,349.29,868.43,344,855.24,344Zm7.5,24.71c0,9.44-2.59,12-9.57,12h-3.11V355h3.75c7.64,0,8.93,4,8.93,10.74Z" style="fill: #474747"/>
    <polygon points="886.15 356.41 900 356.41 900 430.4 913.32 430.4 913.32 356.41 927.29 356.41 927.29 343.99 886.15 343.99 886.15 356.41" style="fill: #474747"/>
    <path d="M978.91,344h-18.5V430.4h18.5c20.57,0,22.77-14.49,22.77-27.68V369.47C1001.68,353.43,997.28,344,978.91,344Zm9.18,60.54c0,8.93-1.29,14.49-10.09,14.49h-4.26V355.5H978c8.8,0,10.09,5.05,10.09,12.94Z" style="fill: #474747"/>
    <rect x="1016.81" y="343.99" width="13.33" height="86.42" style="fill: #474747"/>
    <path d="M1066.36,378.27c-7.63-5.56-8.8-8.54-8.8-14.75,0-5.69,1.17-9.44,5.57-9.44s5.43,3.62,5.43,9.7v4.27h13.19v-4.66c0-9.44-2.45-20.82-18.37-20.82-15.65,0-19.14,11.51-19.14,22.89,0,12.81,5,17.47,14.36,24.84s11.25,10.22,11.25,19.53c0,5.57-1.42,10.48-6.6,10.48s-7-3.62-7-10v-5.43h-13.33v5.17c0,11.39,3.89,21.61,19.93,21.61s20.44-11.65,20.44-23.93C1083.31,393.28,1079.3,387.84,1066.36,378.27Z" style="fill: #474747"/>
    <path d="M1106.85,344l-14,86.41h13.58l3-23.15h13.32l3.37,23.15h14L1125.61,344Zm4.27,51.1c1.68-12.81,4.4-31.31,4.66-38.42h.52c1,9.7,2.84,23.67,4.91,38.42Z" style="fill: #474747"/>
    <path d="M1173.73,378.27c-7.63-5.56-8.79-8.54-8.79-14.75,0-5.69,1.16-9.44,5.56-9.44s5.43,3.62,5.43,9.7v4.27h13.2v-4.66c0-9.44-2.46-20.82-18.37-20.82-15.66,0-19.15,11.51-19.15,22.89,0,12.81,5.05,17.47,14.36,24.84s11.25,10.22,11.25,19.53c0,5.57-1.42,10.48-6.59,10.48s-7-3.62-7-10v-5.43h-13.32v5.17c0,11.39,3.88,21.61,19.92,21.61s20.44-11.65,20.44-23.93C1190.68,393.28,1186.67,387.84,1173.73,378.27Z" style="fill: #474747"/>
    <polygon points="1198.83 356.41 1212.67 356.41 1212.67 430.4 1225.99 430.4 1225.99 356.41 1239.97 356.41 1239.97 343.99 1198.83 343.99 1198.83 356.41" style="fill: #474747"/>
    <polygon points="1264.16 390.95 1283.17 390.95 1283.17 378.66 1264.16 378.66 1264.16 356.41 1284.21 356.41 1284.21 343.99 1250.83 343.99 1250.83 430.4 1284.47 430.4 1286.15 418.11 1264.16 418.11 1264.16 390.95" style="fill: #474747"/>
    <path d="M1337.12,368.05v-3.23c0-15.53-7.76-20.83-21-20.83h-18.5V430.4H1311V391.72h3.1c7.77,0,9.06,2.46,9.06,12.94,0,6.34-.13,20.57.9,25.74H1337c-.9-5.17-.77-19.27-.77-26.52,0-11.77-3-15.39-7.9-17.72C1331.56,384.74,1337.12,381.37,1337.12,368.05Zm-13.45.65c0,9.44-2.59,12-9.58,12H1311V355h3.75c7.63,0,8.93,4,8.93,10.74Z" style="fill: #474747"/>
  </g>
</svg>
