<svg id="b701ba02-11e1-4063-be90-535498906f0a" data-name="Layer 1" xmlns="http://www.w3.org/2000/svg" viewBox="0 0 222.61 55.81">
  <title>logo</title>
  <g>
    <path d="M222.61,0H0V55.81H222.61Zm-4,51.86H4V4H218.66Z" style="fill: #919191"/>
    <polygon points="24.12 30.47 31.6 30.47 31.6 44.42 37.19 44.42 37.19 13.36 31.6 13.36 31.6 25.66 24.12 25.66 24.12 13.36 18.57 13.36 18.57 44.42 24.12 44.42 24.12 30.47" style="fill: #919191"/>
    <polygon points="179.18 39.65 167.98 39.65 167.98 30.61 177.99 30.61 177.99 25.79 167.98 25.79 167.98 18.22 178.44 18.22 178.44 13.36 162.52 13.36 162.52 44.42 178.49 44.42 179.18 39.65" style="fill: #919191"/>
    <path d="M143.16,31.16h2.39c3.53,0,4.5,1.42,4.5,5.6v1.1a25.71,25.71,0,0,0,.5,6.56h5.37a39,39,0,0,1-.41-6.51V36.67c0-4.59-1.15-6.61-3.54-7.76,1.61-.64,4-2.57,4-7.06,0-5.51-3.21-8.49-8.85-8.49h-9.5V44.42h5.5Zm0-13.31h3.17c2.85,0,4.13,1.56,4.13,4.27,0,3.12-1.33,4.54-4.68,4.54h-2.62Z" style="fill: #919191"/>
    <path d="M49.53,36.62h7.21l1.51,7.8h5.83L56.83,13.36H49.62l-7.2,31.06H48ZM53,18.54h.14c.5,2.94,1.42,7.3,2.57,13.26H50.5C51.64,26.07,52.65,21.39,53,18.54Z" style="fill: #919191"/>
    <path d="M204,28.27c0-9.77-3.12-14.91-11.1-14.91h-8.08V44.42h7.67C201.06,44.42,204,38.73,204,28.27ZM190.46,39.88V18h2c4.5,0,5.83,3.17,5.83,10.28,0,8.35-1.52,11.61-5.88,11.61Z" style="fill: #919191"/>
    <path d="M98.89,44.42c1.2-6,3.31-15.83,4.18-21.89h.09c.83,6,2.85,15.42,4,21.89h5.5L119,13.36h-5.55c-.79,5.92-2.67,16.52-3.35,23H110c-.78-5.92-3-16.93-4.17-23h-5c-1.24,6.79-3.44,17.3-4.36,23.31h0c-.46-5.78-2-16-3.08-23.31h-6l5.92,31.06Z" style="fill: #919191"/>
    <path d="M71.46,33.45v11h5.6V33.55a3,3,0,0,1,.18-1.06l7.89-19.13H79.26C77.7,18,75.59,23.82,74.44,27.63c-.91-3.4-3.07-9.41-4.82-14.27H63.43l7.85,19.09A2.71,2.71,0,0,1,71.46,33.45Z" style="fill: #919191"/>
    <rect x="124.31" y="13.36" width="5.55" height="31.06" style="fill: #919191"/>
  </g>
</svg>
