<svg id="c4751a71-b8e5-4220-aceb-77595a88ebca" data-name="Layer 1" xmlns="http://www.w3.org/2000/svg" viewBox="0 0 240.15 119.44">
  <title>outsmart</title>
  <g>
    <g>
      <path d="M163.5,20.21h-.25c-.13,3.45-1.44,12.42-2.26,18.62h4.89C164.88,31.69,164,24.92,163.5,20.21Z" style="fill: #d7e048"/>
      <path d="M33.26,50.74c2.51,0,3.64-1.56,3.64-5.2V24.48c0-3.33-1-5.14-3.64-5.14-2.32,0-3.57,1.69-3.57,5.2V45.6C29.69,49.11,30.94,50.74,33.26,50.74Z" style="fill: #d7e048"/>
      <path d="M192,26V24.6c0-3.26-.63-5.2-4.33-5.2h-1.82V31.87h1.51C190.7,31.87,192,30.62,192,26Z" style="fill: #d7e048"/>
      <path d="M235.73,60V5.11L0,0,12.5,60.46ZM202,14.07H222v6h-6.77V56h-6.46V20.09H202Zm-22.68,0h9c6.4,0,10.16,2.57,10.16,10.09v1.57c0,6.46-2.7,8.09-4.26,8.78,2.38,1.13,3.82,2.88,3.82,8.58,0,3.51-.06,10.35.37,12.86h-6.26c-.5-2.51-.44-9.41-.44-12.48,0-5.08-.63-6.27-4.39-6.27h-1.51V56h-6.45Zm-20.43,0H168L175,56h-6.77l-1.63-11.22h-6.46L158.74,56h-6.58Zm-38.43,0h9.66c1.63,10.66,3.26,22.57,3.82,28.46H134c.7-6,3-18.43,4.64-28.46H148V56h-6.15V40.34c0-7.09.06-15.93.19-20.75H142c-.94,7.27-3.26,24.26-5.08,36.36h-6.08c-1.38-10.91-3.7-28.78-4.7-36.43H126c.13,4.89.38,14.36.38,21.57V56h-5.9ZM95.68,43.6h6.46v2.63c0,3.07.94,4.83,3.38,4.83s3.2-2.39,3.2-5.08c0-4.51-1-5.89-5.45-9.47s-7-5.83-7-12c0-5.52,1.69-11.1,9.28-11.1s8.9,5.52,8.9,10.09v2.26H108.1V23.66c0-2.95-.51-4.7-2.64-4.7s-2.69,1.82-2.69,4.58c0,3,.56,4.45,4.26,7.14,6.27,4.64,8.21,7.27,8.21,14.3,0,6-2.07,11.59-9.9,11.59s-9.66-5-9.66-10.47ZM73.18,14.07H93.12v6H86.35V56H79.89V20.09H73.18Zm-23.94,0H55.7V45.92c0,3.07,1,4.82,3.51,4.82s3.38-2,3.38-4.82V14.07h6.46V45.79c0,6.65-3,10.78-10,10.78-6.64,0-9.84-3.63-9.84-10.78ZM23.1,25.17c0-8,4-11.73,10.29-11.73s10.09,3.7,10.09,11.73V44.73c0,8-3.39,11.84-10.53,11.84-6.77,0-9.85-3.88-9.85-11.72Z" style="fill: #d7e048"/>
      <path d="M209.57,73.85h-1.82V86.33h1.5c3.39,0,4.64-1.26,4.64-5.83V79.06C213.89,75.79,213.27,73.85,209.57,73.85Z" style="fill: #d7e048"/>
      <path d="M237.26,62.09,0,65.86l12.09,51.58,228.06,2ZM66.67,97c0,6.4-1.07,13.42-11,13.42h-9V68.52h9c8.9,0,11,4.58,11,12.35ZM79.2,110.4H72.75V68.52H79.2Zm14.6.63c-7.77,0-9.65-5-9.65-10.47V98.05h6.46v2.63c0,3.08.94,4.83,3.38,4.83s3.2-2.38,3.2-5.08c0-4.51-1-5.89-5.45-9.46s-7-5.83-7-12c0-5.52,1.69-11.1,9.27-11.1S103,73.35,103,77.93v2.25h-6.4V78.11c0-2.94-.5-4.7-2.63-4.7s-2.7,1.82-2.7,4.58c0,3,.57,4.45,4.27,7.15,6.27,4.63,8.21,7.27,8.21,14.29C103.71,105.39,101.64,111,93.8,111Zm29.4-.63-1.63-11.22h-6.45l-1.45,11.22h-6.58l6.77-41.88H123l7,41.88Zm20.12.63c-7.78,0-9.66-5-9.66-10.47V98.05h6.46v2.63c0,3.08.94,4.83,3.39,4.83s3.19-2.38,3.19-5.08c0-4.51-1-5.89-5.45-9.46s-7-5.83-7-12c0-5.52,1.69-11.1,9.28-11.1s8.9,5.52,8.9,10.1v2.25h-6.39V78.11c0-2.94-.51-4.7-2.64-4.7s-2.69,1.82-2.69,4.58c0,3,.56,4.45,4.26,7.15,6.27,4.63,8.21,7.27,8.21,14.29C153.22,105.39,151.15,111,143.32,111Zm32.53-36.49h-6.77V110.4h-6.46V74.54h-6.71v-6h19.94Zm20.31,35.86h-16.3V68.52H196v6h-9.72V85.32h9.22v6h-9.22v13.16H197Zm24.25-30.22c0,6.46-2.69,8.09-4.26,8.78,2.38,1.13,3.82,2.88,3.82,8.59,0,3.51-.06,10.34.38,12.85h-6.27c-.5-2.51-.44-9.4-.44-12.48,0-5.07-.62-6.26-4.39-6.26h-1.5V110.4h-6.46V68.52h9c6.39,0,10.15,2.57,10.15,10.1Z" style="fill: #d7e048"/>
      <path d="M118.19,74.67c-.13,3.44-1.45,12.41-2.26,18.61h4.89c-1-7.14-1.88-13.91-2.38-18.61Z" style="fill: #d7e048"/>
      <path d="M55.2,74.1H53.13v30.78H55.2c4.26,0,4.89-2.69,4.89-7V80.37C60.09,76.55,59.46,74.1,55.2,74.1Z" style="fill: #d7e048"/>
    </g>
    <path d="M29.69,24.54c0-3.51,1.25-5.2,3.57-5.2,2.63,0,3.64,1.81,3.64,5.14V45.54c0,3.64-1.13,5.2-3.64,5.2-2.32,0-3.57-1.63-3.57-5.14V24.54m13.79.63c0-8-3.76-11.73-10.09-11.73S23.1,17.14,23.1,25.17V44.85c0,7.84,3.08,11.72,9.85,11.72,7.14,0,10.53-3.82,10.53-11.84V25.17m5.76-11.1V45.79c0,7.15,3.2,10.78,9.84,10.78,7,0,10-4.13,10-10.78V14.07H62.59V45.92c0,2.82-.81,4.82-3.38,4.82S55.7,49,55.7,45.92V14.07ZM79.89,56h6.46V20.09h6.77v-6H73.18v6h6.71Zm128.86,0h6.46V20.09H222v-6H202v6h6.71ZM95.68,43.6v2.5c0,5.52,1.88,10.47,9.66,10.47s9.9-5.64,9.9-11.59c0-7-1.94-9.66-8.21-14.3-3.7-2.69-4.26-4.14-4.26-7.14,0-2.76.56-4.58,2.69-4.58s2.64,1.75,2.64,4.7v2.07h6.39V23.47c0-4.57-1.19-10.09-8.9-10.09S96.31,19,96.31,24.48c0,6.2,2.45,8.46,7,12s5.45,5,5.45,9.47c0,2.69-.69,5.08-3.2,5.08s-3.38-1.76-3.38-4.83V43.6ZM141.88,56H148V14.07h-9.35c-1.63,10-3.94,22.5-4.64,28.46H134c-.56-5.89-2.19-17.8-3.82-28.46H120.5V56h5.9V41.09c0-7.21-.25-16.68-.38-21.57h.13c1,7.65,3.32,25.52,4.7,36.43h6.08c1.82-12.1,4.14-29.09,5.08-36.36h.06c-.13,4.82-.19,13.66-.19,20.75ZM161,38.83c.82-6.2,2.13-15.17,2.26-18.62h.25c.5,4.71,1.38,11.48,2.38,18.62Zm5.65,5.9L168.27,56H175l-7-41.88h-9.09L152.16,56h6.58l1.44-11.22ZM185.81,19.4h1.82c3.7,0,4.33,1.94,4.33,5.2V26c0,4.58-1.26,5.83-4.64,5.83h-1.51ZM179.36,56h6.45V37.2h1.51c3.76,0,4.39,1.19,4.39,6.27,0,3.07-.06,10,.44,12.48h6.26C198,53.44,198,46.6,198,43.09c0-5.7-1.44-7.45-3.82-8.58,1.56-.69,4.26-2.32,4.26-8.78V24.16c0-7.52-3.76-10.09-10.16-10.09h-9ZM95.5,85.14C91.8,82.44,91.23,81,91.23,78c0-2.76.57-4.58,2.7-4.58s2.63,1.76,2.63,4.7v2.07H103V77.93c0-4.58-1.19-10.1-8.91-10.1s-9.27,5.58-9.27,11.1c0,6.21,2.44,8.46,7,12s5.45,5,5.45,9.46c0,2.7-.69,5.08-3.2,5.08s-3.38-1.75-3.38-4.83V98.05H84.15v2.51C84.15,106.07,86,111,93.8,111s9.91-5.64,9.91-11.6C103.71,92.41,101.77,89.77,95.5,85.14ZM55.64,68.52h-9V110.4h9c10,0,11-7,11-13.42V80.87C66.67,73.1,64.54,68.52,55.64,68.52Zm4.45,29.34c0,4.33-.63,7-4.89,7H53.13V74.1H55.2c4.26,0,4.89,2.45,4.89,6.27ZM72.75,68.52H79.2V110.4H72.75Zm83.16,0h19.94v6h-6.77V110.4h-6.46V74.54h-6.71Zm30.4,35.92H197l-.81,6h-16.3V68.52H196v6h-9.72V85.32h9.22v6h-9.22Zm34.1-24.26V78.62c0-7.53-3.76-10.1-10.15-10.1h-9V110.4h6.46V91.66h1.5c3.77,0,4.39,1.19,4.39,6.26,0,3.08-.06,10,.44,12.48h6.27c-.44-2.51-.38-9.34-.38-12.85,0-5.71-1.44-7.46-3.82-8.59C217.72,88.27,220.41,86.64,220.41,80.18Zm-6.52.32c0,4.57-1.25,5.83-4.64,5.83h-1.5V73.85h1.82c3.7,0,4.32,1.94,4.32,5.21Zm-100-12-6.77,41.88h6.58l1.45-11.22h6.45l1.63,11.22H130l-7-41.88Zm2.07,24.76c.81-6.2,2.13-15.17,2.26-18.61h.25c.5,4.7,1.38,11.47,2.38,18.61Zm37.29,6.15c0,6-2.07,11.6-9.9,11.6s-9.66-5-9.66-10.47V98.05h6.46v2.63c0,3.08.94,4.83,3.39,4.83s3.19-2.38,3.19-5.08c0-4.51-1-5.89-5.45-9.46s-7-5.83-7-12c0-5.52,1.69-11.1,9.28-11.1s8.9,5.52,8.9,10.1v2.25h-6.39V78.11c0-2.94-.51-4.7-2.64-4.7s-2.69,1.82-2.69,4.58c0,3,.56,4.45,4.26,7.15C151.28,89.77,153.22,92.41,153.22,99.43Z" style="fill: #333"/>
  </g>
</svg>
