<svg id="150ebc7a-0c14-48b6-a249-00ab075b2f57" data-name="Layer 1" xmlns="http://www.w3.org/2000/svg" viewBox="0 0 499.01 350.69">
  <title>round-logo</title>
  <path d="M83.14,150.13h10.2v22.58h13.73V150.13h10.28v57H107.07V181.56H93.34v25.61H83.14ZM140,192.85l-2.87,14.32H127l13.23-57h13.23l13.31,57H156l-2.78-14.32ZM151.38,184c-2.1-11-3.79-19-4.72-24.35h-.25c-.67,5.22-2.53,13.82-4.63,24.35Zm28.9,23.17V187a4.84,4.84,0,0,0-.34-1.85l-14.41-35.05h11.38c3.2,8.93,7.16,20,8.84,26.2,2.11-7,6-17.69,8.85-26.2h10.79l-14.5,35.13a5.35,5.35,0,0,0-.33,1.94v20Zm40.27,0-10.88-57h11c2,13.48,4.8,32.18,5.64,42.8h.09c1.68-11,5.73-30.33,8-42.8h9.1c2.11,11.2,6.24,31.43,7.67,42.29h.17c1.26-12,4.72-31.42,6.15-42.29h10.19l-11.62,57H245.91c-2.19-11.88-5.9-29.24-7.42-40.19h-.17c-1.6,11.12-5.47,29.24-7.66,40.19Zm67-57v57h-10.2v-57ZM312,182.82v24.35H301.84v-57h17.44c10.37,0,16.26,5.47,16.26,15.58,0,8.26-4.46,11.8-7.41,13,4.38,2.11,6.49,5.81,6.49,14.24v2.27a70.7,70.7,0,0,0,.76,12h-9.86c-.85-2.61-.93-7.16-.93-12v-2c0-7.67-1.77-10.28-8.26-10.28Zm0-8.26h4.8c6.16,0,8.6-2.61,8.6-8.34,0-5-2.36-7.84-7.59-7.84H312Zm63.94,7.25H357.53v16.6h20.55l-1.26,8.76H347.5v-57h29.24v8.93H357.53V173h18.36Zm12.64-31.68h14.83c14.66,0,20.39,9.43,20.39,27.38,0,19.21-5.48,29.66-21.15,29.66H388.53Zm10.28,48.7h3.62c8,0,10.79-6,10.79-21.32,0-13.06-2.45-18.87-10.71-18.87h-3.7ZM34.14,279.36q2.73,3.69,5.64,7.24h9.27V297q3.53,3.66,7.24,7.1V286.6H92.15l-26,26c1.91,1.52,3.85,3,5.82,4.43l21.27-21.28v34.6c2.39,1.27,4.8,2.48,7.25,3.64V288.49l46.06-46.07a39.16,39.16,0,0,0,25.24,9.13h12.12v14.38l-72.68,72.68q3.7,1.45,7.5,2.75L190.11,270l1.06-1.06V251.55h29.21v32a69.08,69.08,0,0,0-46.54,20.31L132.3,345.37q4.14,1,8.36,1.89l28.73-28.73,32.16,32.16H211.8L174.52,313.4,179,309a61.89,61.89,0,0,1,41.42-18.18v59.92h7.24v-60H250.8v60h7.25v-60h44.46v48l-12,12h10.25l1.78-1.79v1.79h7.24v-9L333,318.43l28.23,28.22q4.16-.9,8.24-2l-31.34-31.34,14.71-14.72,38.33,38.65q3.59-1.5,7.09-3.15l-8.77-8.83h12v7.26q3.67-1.83,7.24-3.81v-3.45h6q5.61-3.42,11-7.25H408.74V257.88h41.85v38.48q3.75-3.93,7.25-8.09V257.88h16.64l2.56,2.56q2.68-4.81,5.06-9.8h-4.62L457.84,231v-2.91H491q1.13-3.59,2.1-7.25H457.84V184.65A13.11,13.11,0,0,1,470.92,172H499c-.05-2.43-.14-4.84-.29-7.24h-27.8a20.2,20.2,0,0,0-13.08,4.79V133h36c-.6-2.44-1.26-4.85-2-7.25H457.84V74h9q-2.62-3.69-5.44-7.24h-3.52v-3.1l.55-.56q-3.75-4.5-7.8-8.75v6.31l-6.1,6.1H414.27l24.07-24.07c-1.83-1.59-3.71-3.13-5.61-4.64L404,66.73H349.85V1.94Q344.24,1.1,338.5.63L300.62,38.51V0h-7.25V44l-44-44H239.1l50,50L271.8,67.33,204.46,0H190V78h-.85a13.12,13.12,0,0,1-13.11-13.11V0h-.76c-2.18,0-4.34.05-6.49.13V27.57H139.73l0-24c-2.44.5-4.85,1.06-7.25,1.66l0,22.3h-32V16.72c-2.45,1.16-4.86,2.37-7.25,3.63v7.22H80.89Q75.52,31,70.43,34.81H93.26V66.86l-28-28q-2.84,2.28-5.56,4.68L93.26,77.11V99.33H31.37L22.09,90q-1.85,3.31-3.55,6.7l2.59,2.59H17.25c-1.15,2.38-2.24,4.8-3.28,7.24h14.4l19.08,19.08-40.34,0q-1,3.58-2,7.25l43.91,0v32.34H.26c-.14,2.41-.22,4.82-.26,7.25H49.05v48.34H5.94q1,3.66,2.1,7.25h41v51.28Zm423.7-38.12,9.4,9.4h-9.4ZM93.26,279.36h-37V228.08h37Zm7.25-1.12V228.08h35.22a39.6,39.6,0,0,0,5.72,9.22Zm83.42-33.94H171.81a32.1,32.1,0,0,1-28-16.22h40.08Zm36.45,0H191.17V228.08h29.21Zm30.42,39.16H227.62V251.55H250.8Zm0-39.16H227.62V228.08H250.8Zm34.39,7.25-27.14,27.14V251.55Zm-27.14-7.25V228.08h35.32v15.28l-.94.94Zm51.7,87.11V295.2l18.11,18.11ZM333,308.18l-23.66-23.66-1.06-1.06H263.52l31.91-31.91A26.18,26.18,0,0,1,314,259.41l33.76,34Zm-32.36-63.41V228.08h47.45l6.19,6.2L326.64,261.9l-7.51-7.57A33.44,33.44,0,0,0,300.62,244.77Zm31.12,22.28,27.65-27.65,9.46,9.46a16.59,16.59,0,0,1,0,23.46l-16,16Zm69.76,51H382.29L358,293.47l16-16a23.67,23.67,0,0,0,7-16.85,24.48,24.48,0,0,0-.16-2.71H401.5Zm0-67.37H378.76a24,24,0,0,0-4.79-6.91l-15.65-15.65H401.5Zm49.09,0H408.74V228.08h35.94l5.91,5.91ZM447.49,74h3.1V125.7H395.76ZM407,74h30.21l-51.46,51.47.26.26H355.3Zm-57.18,0h46.93L349.85,120.9ZM300.62,48.76l42-42v60H316.08L300.62,51.27ZM323.28,74h19.33V125.7H304.35l18.5-18.5A23.86,23.86,0,0,0,323.28,74ZM300.62,61.52l17.1,17.1a16.6,16.6,0,0,1,0,23.46l-5.59,5.59L300.62,96.16Zm0,44.88,6.39,6.39-6.39,6.39ZM293.37,56v32.9L276.92,72.46Zm0,43.15V125.7H223.68L271.8,77.58ZM197.28,3.06l69.39,69.4L239.6,99.53v-.2H197.28ZM139.72,34.81h29.1V64.92a20.38,20.38,0,0,0,20.36,20.36H190v14H139.66Zm-.06,71.76h92.9L213.43,125.7H166.91c-.72,0-1.44-.1-2.17-.1h-25.1ZM100.51,34.81h32l-.05,64.52H100.51Zm0,71.76h31.9v19l-31.89,0Zm0,26.32v0H123v0H450.59v87.94H56.29V132.89h44.22ZM38.62,106.57H93.26v19.06l-35.57,0Z" style="fill: #d9e842"/>
</svg>
