<svg id="c297fab9-3bcf-4c82-9b03-cc4c525aebf6" data-name="Layer 1" xmlns="http://www.w3.org/2000/svg" viewBox="0 0 67.47 88.67">
  <title>scenario--phone</title>
  <path d="M40.08,88.12a3.49,3.49,0,0,1-3.45-3.38,3.59,3.59,0,0,1,3.45-3.6,3.48,3.48,0,0,1,3.5,3.51A3.42,3.42,0,0,1,40.08,88.12ZM59.15,70.86V53.15h-3V70.86a3.34,3.34,0,0,1-3.33,3.34H27.44a3.34,3.34,0,0,1-3.33-3.34V24.21a3.34,3.34,0,0,1,3.33-3.34H52.77a3.34,3.34,0,0,1,3.33,3.34v2.41h3V24.21a6.38,6.38,0,0,0-6.38-6.38H27.44a6.38,6.38,0,0,0-6.38,6.38V70.86a6.39,6.39,0,0,0,6.38,6.39H52.77A6.39,6.39,0,0,0,59.15,70.86Zm6.07,14.46V55.57h-3V85.32A7.79,7.79,0,0,1,54.4,93.1H25.81A7.79,7.79,0,0,1,18,85.32v-67a7.78,7.78,0,0,1,7.78-7.77H54.4a7.78,7.78,0,0,1,7.78,7.77v6.41h3V18.3A10.83,10.83,0,0,0,54.4,7.48H25.81A10.83,10.83,0,0,0,15,18.3v67A10.84,10.84,0,0,0,25.81,96.15H54.4A10.84,10.84,0,0,0,65.22,85.32ZM82.45,40.16A16.84,16.84,0,1,0,65.62,57,16.85,16.85,0,0,0,82.45,40.16Zm-3,0A13.79,13.79,0,1,1,65.62,26.37,13.81,13.81,0,0,1,79.41,40.16ZM72.93,35l-2.15-2.16L58.3,45.32l2.15,2.16Zm0,10.32L60.45,32.84,58.3,35,70.78,47.48Z" transform="translate(-14.99 -7.48)" style="fill: #d9e842"/>
</svg>
