<svg id="080e3ba2-fc83-426e-8a05-f002b8ecd682" data-name="Layer 1" xmlns="http://www.w3.org/2000/svg" viewBox="0 0 97.44 101.86">
  <title>scenario--buildings</title>
  <g>
    <path d="M90.66,48.25h-22V22.1a8,8,0,0,0-8-8H27.77a8,8,0,0,0-8,8V35.71H8a8,8,0,0,0-8,8V101a1.72,1.72,0,0,0,1.72,1.72h94A1.72,1.72,0,0,0,97.44,101V55A6.79,6.79,0,0,0,90.66,48.25Zm-26.35,0a6.75,6.75,0,0,0-5.05,2.27H48.88v-5.1h16.3v2.83ZM48.88,54h8.74a6.24,6.24,0,0,0-.1,1.06v4H48.88Zm0,8.55h8.64v5.1H48.88Zm0,8.54h8.64V99.29H48.88ZM23.2,22.1a4.58,4.58,0,0,1,4.57-4.58H60.6a4.58,4.58,0,0,1,4.58,4.58V42H48.67a8,8,0,0,0-7.82-6.26H23.2Zm6.11,77.19V83.49a.2.2,0,0,1,.2-.2h6.77a.2.2,0,0,1,.2.2v15.8Zm10.62,0V83.49a3.66,3.66,0,0,0-3.65-3.65H29.51a3.66,3.66,0,0,0-3.65,3.65v15.8H3.45V43.74A4.58,4.58,0,0,1,8,39.16H40.85a4.58,4.58,0,0,1,4.58,4.58V99.29Zm54.06,0H61V55a3.34,3.34,0,0,1,3.34-3.33H90.66A3.33,3.33,0,0,1,94,55Z" transform="translate(0 -0.88)" style="fill: #d9e842"/>
    <rect x="67.76" y="57.17" width="6.33" height="6.33" style="fill: #d9e842"/>
    <rect x="80.89" y="57.17" width="6.33" height="6.33" style="fill: #d9e842"/>
    <rect x="67.76" y="69.83" width="6.33" height="6.33" style="fill: #d9e842"/>
    <rect x="80.89" y="69.83" width="6.33" height="6.33" style="fill: #d9e842"/>
    <rect x="67.76" y="82.43" width="6.33" height="6.33" style="fill: #d9e842"/>
    <rect x="12.42" y="46.52" width="6.33" height="6.33" style="fill: #d9e842"/>
    <rect x="12.42" y="59.03" width="6.33" height="6.33" style="fill: #d9e842"/>
    <rect x="12.42" y="71.55" width="6.33" height="6.33" style="fill: #d9e842"/>
    <rect x="12.42" y="84.07" width="6.33" height="6.33" style="fill: #d9e842"/>
    <rect x="80.89" y="82.43" width="6.33" height="6.33" style="fill: #d9e842"/>
  </g>
  <path d="M78.71,27.56a7.45,7.45,0,1,0,14.9,0c0-4.12-2.1-7.18-7.45-7.45s-7.45-3.34-7.45-7.45a7.45,7.45,0,1,1,14.9,0M86.16.88V39.33" transform="translate(0 -0.88)" style="fill: none;stroke: #d9e842;stroke-miterlimit: 10;stroke-width: 2.5px"/>
</svg>
