<svg id="d6c0eb7d-423e-400d-ae01-86106356bf13" data-name="Layer 1" xmlns="http://www.w3.org/2000/svg" viewBox="0 0 63.84 103.62">
  <title>scenario--fire</title>
  <path d="M78.63,65a92.64,92.64,0,0,0-3.66-20,92.36,92.36,0,0,0-3.46-9.56q-1-2.34-2.11-4.61c-.39-.79-.79-1.58-1.21-2.36-.25-.47-1-1.44-1.07-2A86.52,86.52,0,0,1,66.79,40,29,29,0,0,1,62.4,52.65a41.28,41.28,0,0,0-3.27-16.52c-2.45-6.16-6.25-11.65-8.59-17.8a36.51,36.51,0,0,1-2.42-9.41c-.19-2-.39-5.46,1-7.17a31.81,31.81,0,0,0-6.2,27.07c.87,3.68.43,14.51-3.25,18.4-.43-18.19-13-23.38-13-23.38.75.75.88,1.94,1.33,2.86a16.84,16.84,0,0,1,1.43,3.87,19,19,0,0,1-.16,8c-.95,4.31-3,8.29-4.87,12.29-2.52,5.4-4.75,11-5.57,16.9q-.17,1.16-.24,2.28A30.42,30.42,0,0,0,22,85.72c4.85,9.92,16,16.15,26.81,16.15A30.33,30.33,0,0,0,77,82.59C79.23,76.92,79.05,71,78.63,65ZM62.31,79.14C62,87.38,56.81,92.56,49.5,92.8A13.25,13.25,0,0,1,35.84,80s-.36-7.1,6.63-15.46c7.42-8.88,8.15-16.5,8.19-18.75,0-.44,0-.68,0-.68s0,.25,0,.68c0,3.14.34,16.24,2.42,21.83,1.5,4,4.59-7.78,4.59-7.78S62.58,70.9,62.31,79.14Z" transform="translate(-16.8 0)" style="fill: none;stroke: #d9e842;stroke-linejoin: round;stroke-width: 3.5px"/>
</svg>
