<svg id="aa311ab2-d824-4695-a5af-740f896f1c61" data-name="Layer 1" xmlns="http://www.w3.org/2000/svg" viewBox="0 0 18.43 18.43">
  <title>social--instagram</title>
  <path d="M19.2,10q0,2.75-.06,3.81a5.63,5.63,0,0,1-1.49,3.86,5.64,5.64,0,0,1-3.87,1.49c-.7,0-2,.06-3.8.06s-3.1,0-3.8-.06a5.61,5.61,0,0,1-3.86-1.49A5.59,5.59,0,0,1,.83,13.79Q.77,12.73.77,10c0-1.83,0-3.1.06-3.8A5.59,5.59,0,0,1,2.32,2.32,5.57,5.57,0,0,1,6.18.83c.7,0,2-.06,3.8-.06s3.1,0,3.8.06a5.59,5.59,0,0,1,3.87,1.49,5.63,5.63,0,0,1,1.49,3.86C19.18,6.88,19.2,8.15,19.2,10ZM10.9,2.42H7.8l-1.16,0a9.3,9.3,0,0,0-1.23.12,4.38,4.38,0,0,0-.86.23A3.06,3.06,0,0,0,2.8,4.55a4.46,4.46,0,0,0-.23.85,9.84,9.84,0,0,0-.12,1.24c0,.48,0,.87,0,1.16s0,.71,0,1.26V10.9c0,.56,0,1,0,1.27s0,.67,0,1.15a9.47,9.47,0,0,0,.12,1.24,4.58,4.58,0,0,0,.23.86,3.13,3.13,0,0,0,1.75,1.75,4.44,4.44,0,0,0,.86.22,9.3,9.3,0,0,0,1.23.12l1.16,0h4.37l1.15,0a9.47,9.47,0,0,0,1.24-.12,4.86,4.86,0,0,0,.86-.22,3.22,3.22,0,0,0,1.75-1.75,4.64,4.64,0,0,0,.22-.86,9.47,9.47,0,0,0,.12-1.24c0-.48,0-.87,0-1.15V10.9c0-.56,0-.86,0-.92s0-.36,0-.92V7.8c0-.29,0-.68,0-1.16a9.84,9.84,0,0,0-.12-1.24,4.52,4.52,0,0,0-.22-.85A3.13,3.13,0,0,0,15.42,2.8a4.8,4.8,0,0,0-.86-.23,9.47,9.47,0,0,0-1.24-.12l-1.15,0Zm2.43,4.22A4.54,4.54,0,0,1,14.71,10,4.71,4.71,0,0,1,10,14.71,4.69,4.69,0,0,1,5.26,10,4.69,4.69,0,0,1,10,5.26,4.57,4.57,0,0,1,13.33,6.64Zm-1.18,5.51a3.07,3.07,0,0,0,0-4.34,3.07,3.07,0,0,0-4.34,0,3.07,3.07,0,0,0,0,4.34,3.07,3.07,0,0,0,4.34,0Zm3.53-7.87a1.06,1.06,0,0,1,.32.78,1,1,0,0,1-.32.78,1.1,1.1,0,0,1-1.88-.78,1.1,1.1,0,0,1,1.88-.78Z" transform="translate(-0.77 -0.77)" style="fill: #919191"/>
</svg>
