<svg id="58fec632-3715-4222-bad5-ee2b8c918ac9" data-name="Layer 1" xmlns="http://www.w3.org/2000/svg" viewBox="0 0 18.91 15.36">
  <title>social--twitter</title>
  <path d="M19.44,4.13a8.24,8.24,0,0,1-2,2c0,.11,0,.28,0,.51a11.19,11.19,0,0,1-.45,3.11,11.36,11.36,0,0,1-1.39,3,12.14,12.14,0,0,1-2.21,2.53A10,10,0,0,1,10.35,17a11.43,11.43,0,0,1-3.87.65A10.75,10.75,0,0,1,.53,15.92a8.7,8.7,0,0,0,.93.05,7.54,7.54,0,0,0,4.81-1.66A3.71,3.71,0,0,1,4,13.54a3.85,3.85,0,0,1-1.37-1.91,5,5,0,0,0,.73.06,3.86,3.86,0,0,0,1-.14,3.83,3.83,0,0,1-2.22-1.33A3.74,3.74,0,0,1,1.3,7.75v0a3.81,3.81,0,0,0,1.75.5A4,4,0,0,1,1.79,6.82,3.88,3.88,0,0,1,1.85,3,10.91,10.91,0,0,0,5.38,5.87a10.74,10.74,0,0,0,4.46,1.2,4,4,0,0,1-.1-.89,3.71,3.71,0,0,1,1.14-2.74,3.87,3.87,0,0,1,5.57.09,7.6,7.6,0,0,0,2.46-.94A3.82,3.82,0,0,1,17.2,4.73,7.77,7.77,0,0,0,19.44,4.13Z" transform="translate(-0.53 -2.3)" style="fill: #919191"/>
</svg>
