<svg id="f2ac9fb8-390e-42be-b91a-121678064b7e" data-name="Layer 1" xmlns="http://www.w3.org/2000/svg" viewBox="0 0 147.29 77.33">
  <title>takeaways--vol1-scenario</title>
  <g>
    <g>
      <path d="M6.44,77.47l-1,7.61H1L5.59,56.7h6.17l4.75,28.38H11.92l-1.1-7.61Zm3.87-4C9.63,68.64,9,64.05,8.7,60.86H8.53c-.09,2.34-1,8.41-1.53,12.62Z" transform="translate(0.71 -8.17)" style="fill: #333"/>
      <path d="M29,76.71v1.78c0,2.08.64,3.27,2.3,3.27s2.16-1.61,2.16-3.44c0-3.06-.68-4-3.69-6.41s-4.72-4-4.72-8.16c0-3.74,1.15-7.52,6.29-7.52s6,3.74,6,6.84V64.6H33.08V63.2c0-2-.34-3.19-1.79-3.19s-1.82,1.24-1.82,3.1c0,2,.38,3,2.89,4.85,4.24,3.14,5.56,4.93,5.56,9.68,0,4-1.4,7.86-6.71,7.86s-6.54-3.35-6.54-7.09v-1.7Z" transform="translate(0.71 -8.17)" style="fill: #333"/>
      <path d="M54.1,76.58v1.11c0,3.27-.55,7.81-6.54,7.81-5.26,0-6.37-3.31-6.37-7.6V63.58c0-4.37,2-7.3,6.46-7.3C53,56.28,54,59.8,54,63.75V65H49.6V63.24c0-1.91-.47-3-2-3s-2,1-2,3v15c0,1.87.38,3.31,2,3.31s2-1.27,2-3.35V76.58Z" transform="translate(0.71 -8.17)" style="fill: #333"/>
      <path d="M68.08,72.12H61.84V81h7.22l-.55,4H57.46V56.7h11v4.08H61.84v7.3h6.24Z" transform="translate(0.71 -8.17)" style="fill: #333"/>
      <path d="M72,85.08V56.7H77l3.78,14.49c.51,2.08.81,3.78,1.07,5h0c-.21-3.48-.21-7.48-.21-12.11V56.7h4V85.08H80.87L76.7,68.51c-.38-1.49-.59-2.72-.76-3.57h0c.21,3.44.17,7.27.17,12.36v7.78Z" transform="translate(0.71 -8.17)" style="fill: #333"/>
      <path d="M94.25,77.47l-1,7.61H88.81L93.4,56.7h6.16l4.75,28.38H99.73l-1.11-7.61Zm3.86-4c-.68-4.84-1.27-9.43-1.61-12.62h-.17c-.09,2.34-1,8.41-1.53,12.62Z" transform="translate(0.71 -8.17)" style="fill: #333"/>
      <path d="M107.25,56.7h6.07c4.33,0,6.88,1.74,6.88,6.84V64.6c0,4.38-1.83,5.48-2.89,6,1.62.76,2.59,2,2.59,5.82a78.85,78.85,0,0,0,.26,8.71h-4.25a67.62,67.62,0,0,1-.3-8.46c0-3.44-.42-4.24-3-4.24h-1v12.7h-4.37Zm4.37,12.06h1c2.29,0,3.14-.85,3.14-4v-1c0-2.21-.42-3.53-2.93-3.53h-1.23Z" transform="translate(0.71 -8.17)" style="fill: #333"/>
      <path d="M128.65,56.7V85.08h-4.37V56.7Z" transform="translate(0.71 -8.17)" style="fill: #333"/>
      <path d="M146.58,64.22V77.47c0,5.44-2.29,8-7.14,8-4.58,0-6.67-2.63-6.67-7.94V64.22c0-5.44,2.72-7.94,7-7.94S146.58,58.78,146.58,64.22Zm-9.35-.43V78.07c0,2.38.85,3.48,2.43,3.48s2.46-1.06,2.46-3.52V63.75c0-2.25-.68-3.48-2.46-3.48C138.08,60.27,137.23,61.42,137.23,63.79Z" transform="translate(0.71 -8.17)" style="fill: #333"/>
    </g>
    <g>
      <polyline points="1.42 30.81 35.93 6.93 58.51 29.79 74.26 13.76 88.43 29.79 115.73 3.79" style="fill: none;stroke: #333;stroke-miterlimit: 10;stroke-width: 5px"/>
      <polyline points="115.5 14.33 116.86 2.86 105.38 4.21" style="fill: none;stroke: #333;stroke-miterlimit: 10;stroke-width: 5px"/>
    </g>
  </g>
</svg>
