<svg id="7874ab02-0ea3-4d2c-b6f1-ae1d9ea87144" data-name="Layer 1" xmlns="http://www.w3.org/2000/svg" viewBox="0 0 118.01 66.16">
  <title>takeaways--vol1-72</title>
  <g>
    <path d="M43,16v8C34.57,40.14,29.54,59.2,27.51,80.57H17.06c1.74-20.89,8.8-42.27,15.48-55.33H14.64V16Z" transform="translate(-14.64 -15.19)" style="fill: #333"/>
    <path d="M48.59,80.57V79.7c.1-12.86,4.07-18.86,11.42-29.6,5.51-8.12,7.06-11,7.06-17.79,0-5.42-.48-8.52-4.26-8.52-3.29,0-4.54,2.33-4.54,7.07v3.28H48.79V30.57c0-7.45,2.32-15.38,14.51-15.38,11.12,0,14,7.54,14,16.54,0,10.44-2.61,13.92-8.51,22.63-4.35,6.58-8.13,12-8.71,17.41H78.77l-1.35,8.8Z" transform="translate(-14.64 -15.19)" style="fill: #333"/>
    <path d="M106.24,28.53V39.08c0,7.83-3.67,12-10.35,12-5.8,0-10.35-3.19-10.35-11.41V28.44c0-8.22,4.55-11.51,10.45-11.51C102.37,16.93,106.24,20.89,106.24,28.53Zm-14.6,52L121.43,17.7h5.12l-30,62.87Zm.77-52.52V39.66c0,3.19,1,5.12,3.48,5.12,2.81,0,3.49-2.22,3.49-5.22V27.86c0-3.1-1-4.74-3.39-4.74C93.28,23.12,92.41,25,92.41,28.05Zm40.24,30.76V69.35c0,7.84-3.68,12-10.25,12-6.19,0-10.35-3.2-10.35-11.42V58.71c0-8,4.45-11.51,10.44-11.51C128.78,47.2,132.65,51,132.65,58.81Zm-13.74-.49V69.93c0,3.1.87,5.13,3.49,5.13s3.48-2.23,3.48-5.22V58c0-3.09-1.07-4.64-3.48-4.64C119.69,53.39,118.91,55.23,118.91,58.32Z" transform="translate(-14.64 -15.19)" style="fill: #333"/>
  </g>
</svg>
