<svg id="bf5a9b0b-e193-466e-a51a-151b618f28e9" data-name="Layer 1" xmlns="http://www.w3.org/2000/svg" viewBox="0 0 136 66.16">
  <title>takeaways--vol1-m</title>
  <g>
    <path d="M38.63,56.49c0-10.93.1-24.57.29-32h-.1c-1.45,11.22-5,37.43-7.83,56.1H21.61c-2.13-16.83-5.71-44.39-7.26-56.19h-.19c.19,7.54.58,22.14.58,33.27V80.57H5.65V16H20.54c2.52,16.44,5,34.82,5.9,43.91h.1C27.6,50.68,31.18,31.44,33.7,16H48.11V80.57H38.63Z" transform="translate(-5.65 -15.19)" style="fill: #333"/>
    <path d="M77,31.15V29.79c0-3.48-.68-6.19-4.54-6.19s-4.94,3.1-4.94,10.74v8.12C69,40,71.81,37.92,76.64,37.92c8.81,0,11.22,7.15,11.22,15.18V63.45c0,10.06-3.19,17.9-15.28,17.9-13.06,0-15.09-9.58-15.09-17.8V35.4c0-8.8,1-20.21,15.09-20.21,12.67,0,14,9.28,14,14.41v1.55Zm.68,34.33V53.68c0-3.77-1.07-6.77-4.74-6.77s-5.42,2.9-5.42,7.35V65.58c0,4.84,1.65,7.45,5.13,7.45S77.71,70.61,77.71,65.48Z" transform="translate(-5.65 -15.19)" style="fill: #333"/>
    <path d="M94.83,80.57V66.26h10V80.57Z" transform="translate(-5.65 -15.19)" style="fill: #333"/>
    <path d="M127.82,80.57v-16H109.44V56.87L123.36,16H137V56.1h4.65l-.78,8.42H137v16Zm0-24.47V43.72c0-6.48.19-13.06.29-19.54H128c-2.71,10.64-5.71,22-8.9,31.92Z" transform="translate(-5.65 -15.19)" style="fill: #333"/>
  </g>
</svg>
