<svg id="0fbe716c-1f18-4ffc-8cf1-7f424a8bd983" data-name="Layer 1" xmlns="http://www.w3.org/2000/svg" viewBox="0 0 93.75 96.53">
  <title>takeaways--vol1-slip</title>
  <g>
    <path d="M96.3,63.13c1.28-5,2.46-10.26,6.4-13.92,2-1.84,5.16-1.85,7.89-1.72s4.27,2.18,5.53,4.25c1.95,3.17,2.71,6.84,3.78,10.37.4,1.35-.75,2.54-1.16,3.81-1.33,4.15-3.89,6.49-8.42,7.25-2.89.49-5,.75-7-1.81a51.42,51.42,0,0,0-5.92-5.58A3,3,0,0,1,96.3,63.13Z" transform="translate(-26.23)" style="fill: #333"/>
    <path d="M77.09,36.25c.18-1.47.42-3.71.78-5.94.51-3.19,2.32-4.19,5.35-3,2,.83,3.83,2.15,6.27,2.13,1.66,0,2.73,2.4,2.64,4.68C92,38.84,89.22,42.1,86,45c-1.6,1.46-3.34,1.15-5-.45C77.24,40.82,77,40.43,77.09,36.25Z" transform="translate(-26.23)" style="fill: #333"/>
    <path d="M61.11,25.55c0-4.2,1.64-6.26,5-6.08,2,.11,3.74.8,4.41,2.9.47,1.45-1.2,4.06-3,4.82-.89.38-1.84.64-2.77.95C61.11,29.36,61.11,29.36,61.11,25.55Z" transform="translate(-26.23)" style="fill: #333"/>
    <path d="M87,52.71c-.81-2.34,1.23-2.56,3-3.12,4.17-1.35,4.21-1.39,5.48,2.71.32,1,1.46,2.35.51,3.08a8,8,0,0,1-4.66,2.1C88.83,57.5,87,55.55,87,52.71Z" transform="translate(-26.23)" style="fill: #333"/>
    <path d="M65.83,34.27c2-.11,7.44,4,7.78,5.82a1.09,1.09,0,0,1,.06.43c-.29,1.22-5.64,2.77-6.54,1.89-1.08-1-2.14-2.12-3.2-3.18a2.23,2.23,0,0,1-.36-2.71A4.22,4.22,0,0,1,65.83,34.27Z" transform="translate(-26.23)" style="fill: #333"/>
    <polygon points="85.24 94.03 2.5 94.03 2.5 5.29 19.72 19.46 27.49 36.4 43.2 60.09 58.75 65.65 85.24 94.03" style="fill: none;stroke: #333;stroke-miterlimit: 10;stroke-width: 5px"/>
  </g>
</svg>
