<svg data-name="Layer 1" xmlns="http://www.w3.org/2000/svg" viewBox="0 0 1024.06 793.08"><defs><clipPath id="a" transform="translate(-85.12 61.48)"><path fill="none" d="M677.82 204.82h14.69v500.94h-14.69z"/></clipPath><clipPath id="b" transform="translate(-85.12 61.48)"><path fill="none" d="M887.57 0h14.69v664.01h-14.69z"/></clipPath><clipPath id="c" transform="translate(-85.12 61.48)"><path fill="none" d="M801.66 657.7h256.17v14.69H801.66z"/></clipPath><clipPath id="d" transform="translate(-85.12 61.48)"><path d="M925.34 603.76A26.59 26.59 0 0 1 904 614.48h-6.8v14.69h6.8a41.36 41.36 0 0 0 41.32-41.31V200.41h-14.7v387.45a26.47 26.47 0 0 1-5.28 15.9" fill="none"/></clipPath><clipPath id="e" transform="translate(-85.12 61.48)"><path d="M685.57 705.76l-42.48-42.48a33.74 33.74 0 0 1 0-47.63l400.47-400.47-10.38-10.39-400.47 400.48a48.41 48.41 0 0 0 0 68.39l32.1 32.1" fill="none"/></clipPath><clipPath id="f" transform="translate(-85.12 61.48)"><path fill="none" d="M199.57 77.41l628.96 628.35h20.77L209.96 67.03l-10.39 10.38z"/></clipPath><clipPath id="g" transform="translate(-85.12 61.48)"><path fill="none" d="M654.02 675.06l10.39 10.39 393.41-393.42v-20.77l-403.8 403.8z"/></clipPath><clipPath id="h" transform="translate(-85.12 61.48)"><path fill="none" d="M364.12 109.52h15v596h-15z"/></clipPath><clipPath id="i" transform="translate(-85.12 61.48)"><path fill="none" d="M216.39 360.76l345 345h20.77L226.77 350.37l-10.38 10.39z"/></clipPath><clipPath id="j" transform="translate(-85.12 61.48)"><path fill="none" d="M577.9 92.06h14.69v613.7H577.9z"/></clipPath><clipPath id="k" transform="translate(-85.12 61.48)"><path fill="none" d="M92.34 591.53h558.69v14.69H92.34z"/></clipPath><clipPath id="l" transform="translate(-85.12 61.48)"><path fill="none" d="M934.61 512.04h123.22v14.69H934.61z"/></clipPath><clipPath id="m" transform="translate(-85.12 61.48)"><path fill="none" d="M153.52 350.28h537.23v14.69H153.52z"/></clipPath><clipPath id="n" transform="translate(-85.12 61.48)"><path fill="none" d="M204.77 431.26l274.49 274.5h20.76L215.15 420.88l-10.38 10.38z"/></clipPath><clipPath id="o" transform="translate(-85.12 61.48)"><path fill="none" d="M1004.12 190.52h15v515h-15z"/></clipPath></defs><g clip-path="url(#a)"><path d="M600 767V241" fill="none" stroke="#e2e2e2" stroke-miterlimit="10" stroke-width="20"/></g><g clip-path="url(#b)"><path fill="none" stroke="#e2e2e2" stroke-miterlimit="10" stroke-width="20" d="M810 747V0"/></g><g clip-path="url(#c)"><path fill="none" stroke="#e2e2e2" stroke-miterlimit="10" stroke-width="20" d="M704 727h292"/></g><g clip-path="url(#d)"><path d="M810.88 683.96c21.12-1 42.12-5 42.12-37v-402" fill="none" stroke="#e2e2e2" stroke-miterlimit="10" stroke-width="20"/></g><g clip-path="url(#e)"><path d="M608 785l-33-33c-54-54-36-65 14-116l369-370" fill="none" stroke="#e2e2e2" stroke-miterlimit="10" stroke-width="20"/></g><g clip-path="url(#f)"><path fill="none" stroke="#e2e2e2" stroke-miterlimit="10" stroke-width="20" d="M763 775L120 134"/></g><g clip-path="url(#g)"><path fill="none" stroke="#e2e2e2" stroke-miterlimit="10" stroke-width="20" d="M569 747l448-446"/></g><g clip-path="url(#h)"><path fill="none" stroke="#e2e2e2" stroke-miterlimit="10" stroke-width="20" d="M287 782V148"/></g><g clip-path="url(#i)"><path fill="none" stroke="#e2e2e2" stroke-miterlimit="10" stroke-width="20" d="M505 786L133 415"/></g><g clip-path="url(#j)"><path fill="none" stroke="#e2e2e2" stroke-miterlimit="10" stroke-width="20" d="M497 767l3-631"/></g><g clip-path="url(#k)"><path fill="none" stroke="#e2e2e2" stroke-miterlimit="10" stroke-width="20" d="M569 660H0"/></g><g clip-path="url(#l)"><path fill="none" stroke="#e2e2e2" stroke-miterlimit="10" stroke-width="20" d="M841 581h142"/></g><g clip-path="url(#m)"><path fill="none" stroke="#e2e2e2" stroke-miterlimit="10" stroke-width="20" d="M646 419H46"/></g><g clip-path="url(#n)"><path fill="none" stroke="#e2e2e2" stroke-miterlimit="10" stroke-width="20" d="M420 781L113 475"/></g><g clip-path="url(#o)"><path fill="none" stroke="#e2e2e2" stroke-miterlimit="10" stroke-width="20" d="M926 777V213"/></g></svg>