<svg data-name="Layer 1" xmlns="http://www.w3.org/2000/svg" viewBox="0 0 66.24 84.17"><defs><clipPath id="a"><path data-name="SVGID" fill="none" d="M0 0h66.24v84.17H0z"/></clipPath></defs><g clip-path="url(#a)" fill="#d9e842"><path d="M59.76 84.17H6.48A6.4 6.4 0 0 1 0 77.87V6.3A6.4 6.4 0 0 1 6.48 0h53.28a6.4 6.4 0 0 1 6.48 6.3v71.57a6.4 6.4 0 0 1-6.48 6.3M6.48 2.66A3.69 3.69 0 0 0 2.74 6.3v71.57a3.69 3.69 0 0 0 3.74 3.64h53.28a3.69 3.69 0 0 0 3.74-3.64V6.3a3.7 3.7 0 0 0-3.74-3.64z"/><path d="M49.1 74.9a1.39 1.39 0 0 1-1.1-.53l-1.7-2.18-2.6 1.06a1.41 1.41 0 0 1-1.22-.08 1.34 1.34 0 0 1-.67-1l-.36-2.73-2.79-.34a1.41 1.41 0 0 1-1-.66 1.29 1.29 0 0 1-.07-1.18l1.09-2.53-2.25-1.66a1.33 1.33 0 0 1-.56-1.07 1.31 1.31 0 0 1 .54-1l2.25-1.66-1.09-2.53a1.29 1.29 0 0 1 .07-1.18 1.38 1.38 0 0 1 1-.66l2.79-.35.36-2.72a1.32 1.32 0 0 1 .67-1 1.41 1.41 0 0 1 1.22-.08l2.6 1.06L48 49.69a1.39 1.39 0 0 1 1.09-.53 1.4 1.4 0 0 1 1.09.53l1.7 2.18 2.61-1.06a1.39 1.39 0 0 1 1.21.08 1.3 1.3 0 0 1 .67 1l.36 2.72 2.8.35a1.37 1.37 0 0 1 1 .66 1.33 1.33 0 0 1 .08 1.18l-1.09 2.53L61.78 61a1.31 1.31 0 0 1 .54 1 1.33 1.33 0 0 1-.54 1.06l-2.24 1.66 1.09 2.53a1.33 1.33 0 0 1-.08 1.18 1.39 1.39 0 0 1-1 .66l-2.8.34-.36 2.73a1.32 1.32 0 0 1-.67 1 1.39 1.39 0 0 1-1.21.08l-2.61-1.06-1.7 2.18a1.4 1.4 0 0 1-1.09.53m-2.35-5.67a1.4 1.4 0 0 1 1.09.53l1.26 1.61 1.26-1.61a1.38 1.38 0 0 1 1.63-.42l1.93.79.26-2A1.36 1.36 0 0 1 55.34 67l2.07-.25-.81-1.87a1.3 1.3 0 0 1 .4-1.62L58.7 62 57 60.8a1.3 1.3 0 0 1-.44-1.57l.81-1.87-2.07-.26a1.35 1.35 0 0 1-1.14-1.1l-.26-2-1.9.72a1.38 1.38 0 0 1-1.61-.42l-1.29-1.61-1.26 1.61a1.39 1.39 0 0 1-1.62.42l-1.92-.78L44 56a1.33 1.33 0 0 1-1.18 1.15l-2.07.26.81 1.87a1.31 1.31 0 0 1-.43 1.57L39.5 62l1.66 1.23a1.31 1.31 0 0 1 .43 1.57l-.81 1.87 2.07.25A1.34 1.34 0 0 1 44 68.11l.27 2 1.92-.79a1.39 1.39 0 0 1 .53-.1M47.53 18.13H11.66a1.33 1.33 0 1 1 0-2.66h35.87a1.33 1.33 0 1 1 0 2.66M47.53 29.67H11.66a1.34 1.34 0 1 1 0-2.67h35.87a1.34 1.34 0 1 1 0 2.67M47.53 41.2H11.66a1.33 1.33 0 1 1 0-2.66h35.87a1.33 1.33 0 1 1 0 2.66"/><path d="M42.67 52.74h-31a1.33 1.33 0 1 1 0-2.66h31a1.33 1.33 0 1 1 0 2.66M33.12 64.27H11.66a1.33 1.33 0 1 1 0-2.66h21.46a1.33 1.33 0 1 1 0 2.66"/></g></svg>