<svg data-name="Layer 1" xmlns="http://www.w3.org/2000/svg" viewBox="0 0 222.61 55.81"><g fill="#919191"><path d="M222.61 0H0v55.81h222.61zm-4 51.86H4V4h214.66z"/><path d="M24.12 30.47h7.48v13.95h5.59V13.36H31.6v12.3h-7.48v-12.3h-5.55v31.06h5.55V30.47zM179.18 39.65h-11.2v-9.04h10.01v-4.82h-10.01v-7.57h10.46v-4.86h-15.92v31.06h15.97l.69-4.77zM143.16 31.16h2.39c3.53 0 4.5 1.42 4.5 5.6v1.1a25.71 25.71 0 0 0 .5 6.56h5.37a39 39 0 0 1-.41-6.51v-1.24c0-4.59-1.15-6.61-3.54-7.76 1.61-.64 4-2.57 4-7.06 0-5.51-3.21-8.49-8.85-8.49h-9.5v31.06h5.5zm0-13.31h3.17c2.85 0 4.13 1.56 4.13 4.27 0 3.12-1.33 4.54-4.68 4.54h-2.62zM49.53 36.62h7.21l1.51 7.8h5.83l-7.25-31.06h-7.21l-7.2 31.06H48zM53 18.54h.14c.5 2.94 1.42 7.3 2.57 13.26H50.5c1.14-5.73 2.15-10.41 2.5-13.26zM204 28.27c0-9.77-3.12-14.91-11.1-14.91h-8.08v31.06h7.67c8.57 0 11.51-5.69 11.51-16.15zm-13.54 11.61V18h2c4.5 0 5.83 3.17 5.83 10.28 0 8.35-1.52 11.61-5.88 11.61zM98.89 44.42c1.2-6 3.31-15.83 4.18-21.89h.09c.83 6 2.85 15.42 4 21.89h5.5L119 13.36h-5.55c-.79 5.92-2.67 16.52-3.35 23h-.1c-.78-5.92-3-16.93-4.17-23h-5c-1.24 6.79-3.44 17.3-4.36 23.31-.46-5.78-2-16-3.08-23.31h-6l5.92 31.06zM71.46 33.45v11h5.6v-10.9a3 3 0 0 1 .18-1.06l7.89-19.13h-5.87C77.7 18 75.59 23.82 74.44 27.63c-.91-3.4-3.07-9.41-4.82-14.27h-6.19l7.85 19.09a2.71 2.71 0 0 1 .18 1zM124.31 13.36h5.55v31.06h-5.55z"/></g></svg>