<svg data-name="Layer 1" xmlns="http://www.w3.org/2000/svg" viewBox="0 0 1436.84 487.33"><g fill="#d8e148"><path d="M853.81 355h-3.75v25.75h3.11c7 0 9.57-2.59 9.57-12v-3c0-6.75-1.29-10.75-8.93-10.75zM519.66 354.86c-4.78 0-7.37 3.49-7.37 10.73v43.47c0 7.24 2.59 10.61 7.37 10.61 5.18 0 7.51-3.24 7.51-10.74v-43.47c0-6.85-2.07-10.6-7.51-10.6zM1115.78 356.67c-.26 7.11-3 25.61-4.66 38.42h10.09c-2.07-14.75-3.88-28.72-4.91-38.42zM800.9 356.67c-.26 7.11-3 25.61-4.65 38.42h10.09c-2.07-14.75-3.89-28.72-4.92-38.42zM978 355.5h-4.26V419H978c8.8 0 10.09-5.56 10.09-14.49v-36.07c0-7.89-1.29-12.94-10.09-12.94zM1314.74 355H1311v25.75h3.1c7 0 9.58-2.59 9.58-12v-3c-.01-6.75-1.31-10.75-8.94-10.75z"/><path d="M1294.93 307.69l43-20.75-99.27 1.33v22.25H391.89l-22.22 169.86 570.22-10.23-48.51 17.18 522.07-21 23.39-163.62zm-754.18 99.56c0 16.56-7 24.45-21.73 24.45-14 0-20.31-8-20.31-24.19v-40.62c0-16.56 8.27-24.19 21.21-24.19s20.83 7.63 20.83 24.19zm55.37 2.2c0 13.71-6.08 22.25-20.57 22.25-13.71 0-20.31-7.51-20.31-22.25V344h13.32v65.72c0 6.33 2.07 10 7.25 10s7-4.14 7-10V344h13.33zm52.26-53h-14v74h-13.3v-74h-13.84V344h41.14zm27.81 75.29c-16 0-19.92-10.22-19.92-21.61v-5.17h13.33v5.43c0 6.34 1.94 10 7 10s6.6-4.91 6.6-10.48c0-9.31-2.07-12.16-11.26-19.53s-14.35-12-14.35-24.84c0-11.38 3.49-22.89 19.14-22.89 15.91 0 18.37 11.38 18.37 20.82v4.66h-13.21v-4.27c0-6.08-1-9.7-5.44-9.7s-5.56 3.75-5.56 9.44c0 6.21 1.16 9.19 8.8 14.75 12.93 9.57 16.94 15 16.94 29.5 0 12.2-4.27 23.85-20.44 23.85zm90.69-1.3H754.2v-32.25c0-14.62.13-32.86.39-42.82h-.13c-1.94 15-6.73 50.07-10.48 75h-12.55c-2.84-22.51-7.63-59.37-9.7-75.16h-.26c.26 10.09.78 29.63.78 44.5v30.69h-12.16V344H730c3.36 22 6.73 46.57 7.89 58.73h.11c1.42-12.29 6.21-38 9.57-58.73h19.28zm44.37 0l-3.36-23.15h-13.33l-3 23.15H778L792 344h18.75l14.49 86.41zm64.94-62.35c0 13.32-5.56 16.69-8.79 18.11 4.91 2.33 7.89 5.95 7.89 17.72 0 7.25-.13 21.35.77 26.52h-12.93c-1-5.17-.91-19.4-.91-25.74 0-10.48-1.29-12.94-9.05-12.94h-3.11v38.64h-13.32V344h18.5c13.19 0 21 5.3 21 20.83zm51.1-11.64h-14v74H900v-74h-13.85V344h41.14zm74.39 46.31c0 13.19-2.2 27.68-22.77 27.68h-18.5V344h18.5c18.37 0 22.77 9.44 22.77 25.48zm28.46 27.68h-13.33V344h13.33zm32.73 1.3c-16 0-19.93-10.22-19.93-21.61v-5.17h13.33v5.43c0 6.34 1.94 10 7 10s6.6-4.91 6.6-10.48c0-9.31-2.07-12.16-11.25-19.53s-14.36-12-14.36-24.84c0-11.38 3.49-22.89 19.14-22.89 15.92 0 18.37 11.38 18.37 20.82v4.66h-13.19v-4.27c0-6.08-1-9.7-5.43-9.7s-5.57 3.75-5.57 9.44c0 6.21 1.17 9.19 8.8 14.75 12.94 9.57 17 15 17 29.5-.07 12.2-4.38 23.85-20.51 23.85zm63.26-1.3l-3.37-23.15h-13.32l-3 23.15h-13.58l14-86.41h18.76l14.49 86.41zm44.11 1.3c-16 0-19.92-10.22-19.92-21.61v-5.17h13.32v5.43c0 6.34 1.94 10 7 10s6.59-4.91 6.59-10.48c0-9.31-2.07-12.16-11.25-19.53s-14.36-12-14.36-24.84c0-11.38 3.49-22.89 19.15-22.89 15.91 0 18.37 11.38 18.37 20.82v4.66h-13.2v-4.27c0-6.08-1-9.7-5.43-9.7s-5.56 3.75-5.56 9.44c0 6.21 1.16 9.19 8.79 14.75 12.94 9.57 17 15 17 29.5-.06 12.2-4.33 23.85-20.5 23.85zm69.76-75.33h-14v74h-13.33v-74h-13.84V344H1240zm44.5 74h-33.64V344h33.38v12.42h-20v22.25h19V391h-19v27.16h22zm52.65-62.35c0 13.32-5.56 16.69-8.8 18.11 4.92 2.33 7.9 5.95 7.9 17.72 0 7.25-.13 21.35.77 26.52h-12.94c-1-5.17-.9-19.4-.9-25.74 0-10.48-1.29-12.94-9.06-12.94H1311v38.67h-13.33V344h18.5c13.2 0 21 5.3 21 20.83z"/></g><g fill="#474747"><path d="M1238.62 0H0v310.52h1238.62zm-22 288.56H22V22h1194.66z"/><path d="M134.19 169.55h41.61v77.61h31.15V74.33H175.8v68.42h-41.61V74.33H103.3v172.83h30.89v-77.61zM996.97 220.61h-62.29v-50.29h55.66v-26.81h-55.66v-42.12h58.21V74.33H904.3v172.83h88.84l3.83-26.55zM796.59 173.38h13.27c19.66 0 25 7.92 25 31.15v6.12c0 14.81.26 28.6 2.81 36.51h29.87c-1.28-9.19-2.3-16.59-2.3-36.25V204c0-25.53-6.38-36.76-19.65-43.15 8.93-3.57 22.46-14.29 22.46-39.32 0-30.63-17.87-47.22-49.27-47.22H766v172.85h30.64zm0-74h17.61c15.83 0 23 8.69 23 23.75 0 17.36-7.4 25.27-26 25.27h-14.61zM275.6 203.76h40.08l8.43 43.4h32.42L316.19 74.33h-40.08L236 247.16h30.89zM295 103.17h.76c2.81 16.34 7.91 40.59 14.29 73.79H281c6.35-31.96 12-57.96 14-73.79zM1135.32 157.3c0-54.38-17.35-83-61.78-83h-44.93v172.86h42.64c47.48 0 64.07-31.65 64.07-89.86zm-75.56 64.59V100.11H1071c25 0 32.42 17.62 32.42 57.19 0 46.46-8.42 64.59-32.68 64.59zM550.26 247.16c6.64-33.19 18.38-88.07 23.24-121.78h.5c4.6 33.2 15.84 85.79 22.47 121.78h30.63l35.24-172.83h-30.89c-4.35 32.93-14.81 91.9-18.64 128.15h-.51c-4.34-32.93-16.85-94.2-23.23-128.15H561.5c-6.9 37.78-19.15 96.24-24.26 129.69H537c-2.56-32.17-11-88.85-17.11-129.69h-33.2l32.94 172.83zM397.62 186.14v61h31.15v-60.5a16.17 16.17 0 0 1 1-5.87L473.7 74.33H441c-8.68 25.78-20.42 58.21-26.81 79.39-5.1-18.89-17.1-52.33-26.81-79.39h-34.44l43.66 106.2a14.63 14.63 0 0 1 1.02 5.61zM691.67 74.33h30.89v172.83h-30.89zM519.92 342.7c-12.94 0-21.21 7.63-21.21 24.19v40.62c0 16.17 6.33 24.19 20.31 24.19 14.74 0 21.73-7.89 21.73-24.45v-40.36c0-16.56-7.75-24.19-20.83-24.19zm7.25 66.23c0 7.5-2.33 10.74-7.51 10.74-4.78 0-7.37-3.37-7.37-10.61v-43.47c0-7.24 2.59-10.73 7.37-10.73 5.44 0 7.51 3.75 7.51 10.6zM582.79 409.71c0 5.82-1.68 10-7 10s-7.25-3.63-7.25-10V344h-13.3v65.46c0 14.74 6.6 22.25 20.31 22.25 14.49 0 20.57-8.54 20.57-22.25V344h-13.33zM607.24 356.41h13.84v73.99h13.33v-73.99h13.97v-12.42h-41.14v12.42zM679.69 378.27c-7.64-5.56-8.8-8.54-8.8-14.75 0-5.69 1.16-9.44 5.56-9.44s5.44 3.62 5.44 9.7v4.27h13.19v-4.66c0-9.44-2.46-20.82-18.37-20.82-15.65 0-19.14 11.51-19.14 22.89 0 12.81 5 17.47 14.35 24.84s11.26 10.22 11.26 19.53c0 5.57-1.42 10.48-6.6 10.48s-7-3.62-7-10v-5.43h-13.31v5.17c0 11.39 3.88 21.61 19.92 21.61s20.44-11.65 20.44-23.93c0-14.45-4.01-19.89-16.94-29.46zM738 402.72h-.13c-1.13-12.16-4.5-36.72-7.87-58.72h-19.91v86.4h12.16v-30.66c0-14.87-.52-34.41-.78-44.5h.26c2.07 15.79 6.86 52.65 9.7 75.16H744c3.75-25 8.54-60 10.48-75h.13c-.26 10-.39 28.2-.39 42.82v32.18h12.68V344h-19.3c-3.36 20.69-8.15 46.43-9.6 58.72zM792 344l-14 86.4h13.59l3-23.15h13.33l3.36 23.15h14L810.73 344zm4.27 51.1c1.68-12.81 4.39-31.31 4.65-38.42h.52c1 9.7 2.85 23.67 4.92 38.42zM855.24 344h-18.5v86.4h13.32v-38.68h3.11c7.76 0 9.05 2.46 9.05 12.94 0 6.34-.13 20.57.91 25.74h12.93c-.9-5.17-.77-19.27-.77-26.52 0-11.77-3-15.39-7.89-17.72 3.23-1.42 8.79-4.79 8.79-18.11v-3.23c0-15.53-7.76-20.82-20.95-20.82zm7.5 24.71c0 9.44-2.59 12-9.57 12h-3.11V355h3.75c7.64 0 8.93 4 8.93 10.74zM886.15 356.41H900v73.99h13.32v-73.99h13.97v-12.42h-41.14v12.42zM978.91 344h-18.5v86.4h18.5c20.57 0 22.77-14.49 22.77-27.68v-33.25c0-16.04-4.4-25.47-22.77-25.47zm9.18 60.54c0 8.93-1.29 14.49-10.09 14.49h-4.26V355.5H978c8.8 0 10.09 5.05 10.09 12.94zM1016.81 343.99h13.33v86.42h-13.33zM1066.36 378.27c-7.63-5.56-8.8-8.54-8.8-14.75 0-5.69 1.17-9.44 5.57-9.44s5.43 3.62 5.43 9.7v4.27h13.19v-4.66c0-9.44-2.45-20.82-18.37-20.82-15.65 0-19.14 11.51-19.14 22.89 0 12.81 5 17.47 14.36 24.84s11.25 10.22 11.25 19.53c0 5.57-1.42 10.48-6.6 10.48s-7-3.62-7-10v-5.43h-13.33v5.17c0 11.39 3.89 21.61 19.93 21.61s20.44-11.65 20.44-23.93c.02-14.45-3.99-19.89-16.93-29.46zM1106.85 344l-14 86.41h13.58l3-23.15h13.32l3.37 23.15h14L1125.61 344zm4.27 51.1c1.68-12.81 4.4-31.31 4.66-38.42h.52c1 9.7 2.84 23.67 4.91 38.42zM1173.73 378.27c-7.63-5.56-8.79-8.54-8.79-14.75 0-5.69 1.16-9.44 5.56-9.44s5.43 3.62 5.43 9.7v4.27h13.2v-4.66c0-9.44-2.46-20.82-18.37-20.82-15.66 0-19.15 11.51-19.15 22.89 0 12.81 5.05 17.47 14.36 24.84s11.25 10.22 11.25 19.53c0 5.57-1.42 10.48-6.59 10.48s-7-3.62-7-10v-5.43h-13.32v5.17c0 11.39 3.88 21.61 19.92 21.61s20.44-11.65 20.44-23.93c.01-14.45-4-19.89-16.94-29.46zM1198.83 356.41h13.84v73.99h13.32v-73.99h13.98v-12.42h-41.14v12.42zM1264.16 390.95h19.01v-12.29h-19.01v-22.25h20.05v-12.42h-33.38v86.41h33.64l1.68-12.29h-21.99v-27.16zM1337.12 368.05v-3.23c0-15.53-7.76-20.83-21-20.83h-18.5v86.41H1311v-38.68h3.1c7.77 0 9.06 2.46 9.06 12.94 0 6.34-.13 20.57.9 25.74H1337c-.9-5.17-.77-19.27-.77-26.52 0-11.77-3-15.39-7.9-17.72 3.23-1.42 8.79-4.79 8.79-18.11zm-13.45.65c0 9.44-2.59 12-9.58 12H1311V355h3.75c7.63 0 8.93 4 8.93 10.74z"/></g></svg>