<svg data-name="Layer 1" xmlns="http://www.w3.org/2000/svg" viewBox="0 0 240.15 119.44"><g fill="#d7e048"><path d="M163.5 20.21h-.25c-.13 3.45-1.44 12.42-2.26 18.62h4.89c-1-7.14-1.88-13.91-2.38-18.62zM33.26 50.74c2.51 0 3.64-1.56 3.64-5.2V24.48c0-3.33-1-5.14-3.64-5.14-2.32 0-3.57 1.69-3.57 5.2V45.6c0 3.51 1.25 5.14 3.57 5.14zM192 26v-1.4c0-3.26-.63-5.2-4.33-5.2h-1.82v12.47h1.51c3.34 0 4.64-1.25 4.64-5.87z"/><path d="M235.73 60V5.11L0 0l12.5 60.46zM202 14.07h20v6h-6.77V56h-6.46V20.09H202zm-22.68 0h9c6.4 0 10.16 2.57 10.16 10.09v1.57c0 6.46-2.7 8.09-4.26 8.78 2.38 1.13 3.82 2.88 3.82 8.58 0 3.51-.06 10.35.37 12.86h-6.26c-.5-2.51-.44-9.41-.44-12.48 0-5.08-.63-6.27-4.39-6.27h-1.51V56h-6.45zm-20.43 0H168L175 56h-6.77l-1.63-11.22h-6.46L158.74 56h-6.58zm-38.43 0h9.66c1.63 10.66 3.26 22.57 3.82 28.46h.06c.7-6 3-18.43 4.64-28.46H148V56h-6.15V40.34c0-7.09.06-15.93.19-20.75H142c-.94 7.27-3.26 24.26-5.08 36.36h-6.08c-1.38-10.91-3.7-28.78-4.7-36.43H126c.13 4.89.38 14.36.38 21.57V56h-5.9zM95.68 43.6h6.46v2.63c0 3.07.94 4.83 3.38 4.83s3.2-2.39 3.2-5.08c0-4.51-1-5.89-5.45-9.47s-7-5.83-7-12c0-5.52 1.69-11.1 9.28-11.1s8.9 5.52 8.9 10.09v2.26h-6.35v-2.1c0-2.95-.51-4.7-2.64-4.7s-2.69 1.82-2.69 4.58c0 3 .56 4.45 4.26 7.14 6.27 4.64 8.21 7.27 8.21 14.3 0 6-2.07 11.59-9.9 11.59s-9.66-5-9.66-10.47zm-22.5-29.53h19.94v6h-6.77V56h-6.46V20.09h-6.71zm-23.94 0h6.46v31.85c0 3.07 1 4.82 3.51 4.82s3.38-2 3.38-4.82V14.07h6.46v31.72c0 6.65-3 10.78-10 10.78-6.64 0-9.84-3.63-9.84-10.78zM23.1 25.17c0-8 4-11.73 10.29-11.73s10.09 3.7 10.09 11.73v19.56c0 8-3.39 11.84-10.53 11.84-6.77 0-9.85-3.88-9.85-11.72zM209.57 73.85h-1.82v12.48h1.5c3.39 0 4.64-1.26 4.64-5.83v-1.44c0-3.27-.62-5.21-4.32-5.21z"/><path d="M237.26 62.09L0 65.86l12.09 51.58 228.06 2zM66.67 97c0 6.4-1.07 13.42-11 13.42h-9v-41.9h9c8.9 0 11 4.58 11 12.35zm12.53 13.4h-6.45V68.52h6.45zm14.6.63c-7.77 0-9.65-5-9.65-10.47v-2.51h6.46v2.63c0 3.08.94 4.83 3.38 4.83s3.2-2.38 3.2-5.08c0-4.51-1-5.89-5.45-9.46s-7-5.83-7-12c0-5.52 1.69-11.1 9.27-11.1S103 73.35 103 77.93v2.25h-6.4v-2.07c0-2.94-.5-4.7-2.63-4.7s-2.7 1.82-2.7 4.58c0 3 .57 4.45 4.27 7.15 6.27 4.63 8.21 7.27 8.21 14.29-.04 5.96-2.11 11.57-9.95 11.57zm29.4-.63l-1.63-11.22h-6.45l-1.45 11.22h-6.58l6.77-41.88H123l7 41.88zm20.12.63c-7.78 0-9.66-5-9.66-10.47v-2.51h6.46v2.63c0 3.08.94 4.83 3.39 4.83s3.19-2.38 3.19-5.08c0-4.51-1-5.89-5.45-9.46s-7-5.83-7-12c0-5.52 1.69-11.1 9.28-11.1s8.9 5.52 8.9 10.1v2.25h-6.39v-2.11c0-2.94-.51-4.7-2.64-4.7s-2.69 1.82-2.69 4.58c0 3 .56 4.45 4.26 7.15 6.27 4.63 8.21 7.27 8.21 14.29.04 5.96-2.03 11.57-9.86 11.57zm32.53-36.49h-6.77v35.86h-6.46V74.54h-6.71v-6h19.94zm20.31 35.86h-16.3V68.52H196v6h-9.72v10.8h9.22v6h-9.22v13.16H197zm24.25-30.22c0 6.46-2.69 8.09-4.26 8.78 2.38 1.13 3.82 2.88 3.82 8.59 0 3.51-.06 10.34.38 12.85h-6.27c-.5-2.51-.44-9.4-.44-12.48 0-5.07-.62-6.26-4.39-6.26h-1.5v18.74h-6.46V68.52h9c6.39 0 10.15 2.57 10.15 10.1z"/><path d="M118.19 74.67c-.13 3.44-1.45 12.41-2.26 18.61h4.89c-1-7.14-1.88-13.91-2.38-18.61zM55.2 74.1h-2.07v30.78h2.07c4.26 0 4.89-2.69 4.89-7V80.37c0-3.82-.63-6.27-4.89-6.27z"/></g><path d="M29.69 24.54c0-3.51 1.25-5.2 3.57-5.2 2.63 0 3.64 1.81 3.64 5.14v21.06c0 3.64-1.13 5.2-3.64 5.2-2.32 0-3.57-1.63-3.57-5.14V24.54m13.79.63c0-8-3.76-11.73-10.09-11.73S23.1 17.14 23.1 25.17v19.68c0 7.84 3.08 11.72 9.85 11.72 7.14 0 10.53-3.82 10.53-11.84V25.17m5.76-11.1v31.72c0 7.15 3.2 10.78 9.84 10.78 7 0 10-4.13 10-10.78V14.07h-6.49v31.85c0 2.82-.81 4.82-3.38 4.82S55.7 49 55.7 45.92V14.07zM79.89 56h6.46V20.09h6.77v-6H73.18v6h6.71zm128.86 0h6.46V20.09H222v-6h-20v6h6.71zM95.68 43.6v2.5c0 5.52 1.88 10.47 9.66 10.47s9.9-5.64 9.9-11.59c0-7-1.94-9.66-8.21-14.3-3.7-2.69-4.26-4.14-4.26-7.14 0-2.76.56-4.58 2.69-4.58s2.64 1.75 2.64 4.7v2.07h6.39v-2.26c0-4.57-1.19-10.09-8.9-10.09s-9.28 5.62-9.28 11.1c0 6.2 2.45 8.46 7 12s5.45 5 5.45 9.47c0 2.69-.69 5.08-3.2 5.08s-3.38-1.76-3.38-4.83v-2.6zm46.2 12.4H148V14.07h-9.35c-1.63 10-3.94 22.5-4.64 28.46H134c-.56-5.89-2.19-17.8-3.82-28.46h-9.68V56h5.9V41.09c0-7.21-.25-16.68-.38-21.57h.13c1 7.65 3.32 25.52 4.7 36.43h6.08c1.82-12.1 4.14-29.09 5.08-36.36h.06c-.13 4.82-.19 13.66-.19 20.75zM161 38.83c.82-6.2 2.13-15.17 2.26-18.62h.25c.5 4.71 1.38 11.48 2.38 18.62zm5.65 5.9L168.27 56H175l-7-41.88h-9.09L152.16 56h6.58l1.44-11.22zm19.16-25.33h1.82c3.7 0 4.33 1.94 4.33 5.2V26c0 4.58-1.26 5.83-4.64 5.83h-1.51zM179.36 56h6.45V37.2h1.51c3.76 0 4.39 1.19 4.39 6.27 0 3.07-.06 10 .44 12.48h6.26c-.41-2.51-.41-9.35-.41-12.86 0-5.7-1.44-7.45-3.82-8.58 1.56-.69 4.26-2.32 4.26-8.78v-1.57c0-7.52-3.76-10.09-10.16-10.09h-9zM95.5 85.14c-3.7-2.7-4.27-4.14-4.27-7.14 0-2.76.57-4.58 2.7-4.58s2.63 1.76 2.63 4.7v2.07H103v-2.26c0-4.58-1.19-10.1-8.91-10.1s-9.27 5.58-9.27 11.1c0 6.21 2.44 8.46 7 12s5.45 5 5.45 9.46c0 2.7-.69 5.08-3.2 5.08s-3.38-1.75-3.38-4.83v-2.59h-6.54v2.51c0 5.51 1.85 10.44 9.65 10.44s9.91-5.64 9.91-11.6c0-6.99-1.94-9.63-8.21-14.26zM55.64 68.52h-9v41.88h9c10 0 11-7 11-13.42V80.87c.03-7.77-2.1-12.35-11-12.35zm4.45 29.34c0 4.33-.63 7-4.89 7h-2.07V74.1h2.07c4.26 0 4.89 2.45 4.89 6.27zm12.66-29.34h6.45v41.88h-6.45zm83.16 0h19.94v6h-6.77v35.88h-6.46V74.54h-6.71zm30.4 35.92H197l-.81 6h-16.3V68.52H196v6h-9.72v10.8h9.22v6h-9.22zm34.1-24.26v-1.56c0-7.53-3.76-10.1-10.15-10.1h-9v41.88h6.46V91.66h1.5c3.77 0 4.39 1.19 4.39 6.26 0 3.08-.06 10 .44 12.48h6.27c-.44-2.51-.38-9.34-.38-12.85 0-5.71-1.44-7.46-3.82-8.59 1.6-.69 4.29-2.32 4.29-8.78zm-6.52.32c0 4.57-1.25 5.83-4.64 5.83h-1.5V73.85h1.82c3.7 0 4.32 1.94 4.32 5.21zm-100-12l-6.77 41.88h6.58l1.45-11.22h6.45l1.63 11.22H130l-7-41.88zm2.07 24.76c.81-6.2 2.13-15.17 2.26-18.61h.25c.5 4.7 1.38 11.47 2.38 18.61zm37.29 6.15c0 6-2.07 11.6-9.9 11.6s-9.66-5-9.66-10.47v-2.49h6.46v2.63c0 3.08.94 4.83 3.39 4.83s3.19-2.38 3.19-5.08c0-4.51-1-5.89-5.45-9.46s-7-5.83-7-12c0-5.52 1.69-11.1 9.28-11.1s8.9 5.52 8.9 10.1v2.25h-6.39v-2.11c0-2.94-.51-4.7-2.64-4.7s-2.69 1.82-2.69 4.58c0 3 .56 4.45 4.26 7.15 6.28 4.63 8.22 7.27 8.22 14.29z" fill="#333"/></svg>