<svg data-name="Layer 1" xmlns="http://www.w3.org/2000/svg" viewBox="0 0 1169.28 1169.28"><path d="M584.64 1169.28A584.75 584.75 0 0 1 357.02 46.02a584.75 584.75 0 0 1 455.25 1077.25 581.24 581.24 0 0 1-227.63 46.01z" fill="#333"/><path d="M998.05 171.24a584.643 584.643 0 1 0-826.81 826.81l826.81-826.81z" fill="#444"/><g fill="#f4f3f2"><path d="M362.1 239l-11.76 8.59-21.13-9.85-3.19 2.33 12.06 16.51-10.13 7.4-31.52-43.15 15.51-11.33c4.81-3.52 9.29-5.26 13.62-5.25a14.8 14.8 0 0 1 12 6.41c6 8.19 3.06 15.22.6 18.55zm-39.88-23.34c-1.94 0-3.7 1-6 2.67l-4 2.92 8.08 11.07 4-2.92c2.31-1.69 3.75-3.13 4.32-5a6 6 0 0 0-1-6 6.08 6.08 0 0 0-5.4-2.74zM422.37 207.16l-31.77 15.43-23.35-48.06 31.14-15.13 4.36 9-19.92 9.69 4.77 9.82 18.81-9.17 4.37 9-18.81 9.14 5.41 11.15 20.55-10zM484.21 182.83c-2.83 3.95-7.21 6.64-12.73 8.21-7.45 2.12-15.18.13-20.45-2.56l3.46-10.48c4.83 2.81 11.3 3.79 15.25 2.67s6.33-3.82 5.35-7.24-5.17-3.76-7.64-3.95-6.72-.42-8.65-.68a21.15 21.15 0 0 1-7.17-2c-2.83-1.45-5.46-3.92-6.84-8.77a15.07 15.07 0 0 1 2.17-12.77c2.21-3.29 6.44-6.26 12.4-7.95s13.61-.81 18.11 1.69l-2.73 9.89c-3.82-2.13-9.08-3.05-13-2s-6.28 3.39-5.4 6.52 4.14 3.5 6.7 3.74 6.67.52 8.5.72a21.52 21.52 0 0 1 8.34 2.14 14 14 0 0 1 6.84 8.77 16.16 16.16 0 0 1-2.51 14.05zM538.8 176.74l-12.45 1.58-6.72-53 12.45-1.58zM608.56 174.61l-31-.5.86-53.43 12.46.2-.68 43.05 18.51.3zM655.53 180.35l-12.39-2 8.35-52.79 12.4 2zM727.1 199.22l-33.65-10.71 16.2-50.92 33 10.5-3 9.52-21.11-6.72-3.31 10.41 19.93 6.34-3 9.52-19.93-6.34-3.76 11.81 21.78 6.93zM802.99 236.27l-11.25-6.19-3.13-43.06s-2.87 5.72-5.63 10.72l-11.63 21.19-10.72-5.89 25.7-46.85 11.75 6.45 2.81 42.53s2.7-5.41 5.42-10.36l11.66-21.26 10.77 5.87zM889.34 247.6l-10.6-8.79-27.77 33.53-9.67-8 27.75-33.53-10.62-8.79 6.33-7.63 30.9 25.58z"/></g><g fill="#f4f3f2"><path d="M334.74 970.98c-4.21.08-8.72-1.85-13.23-5l-17.89-12.52 30.63-43.78 14.91 10.43c4 2.8 7.65 5.82 9.5 9.39a12 12 0 0 1-.85 13.1 12.44 12.44 0 0 1-13.19 5.14l-.08.12c4.52 5.15 5.56 11.37 1.79 16.76-3.38 4.85-7.4 6.29-11.59 6.36zm2.63-20.37c-.77-2.14-2.39-3.47-4.61-5l-5.65-4-7.81 11.16 5.64 4c2.22 1.55 4 2.62 6.3 2.61a6.63 6.63 0 0 0 6.13-8.76zm10-19.11c-.67-1.61-1.73-2.53-3.95-4.09l-4.25-3-7.06 10.09 4 2.8c2.28 1.59 3.71 2.4 5.49 2.42a5.64 5.64 0 0 0 5.09-2.68 5.29 5.29 0 0 0 .62-5.54zM426.25 996.92c-3 6.86-6.35 11.07-11.49 13.28s-11.28 1.94-18.36-1.2-11.44-7.63-13.28-12.85-.83-10.53 2.22-17.4l12.64-28.45 11.54 5.12-12.64 28.45c-1.54 3.47-2.45 6.29-1.7 9a10.48 10.48 0 0 0 14 6.23c2.51-1.26 4-3.83 5.53-7.3l12.63-28.45 11.54 5.12zM491.98 1035.28c-4.39 2.07-9.53 2.29-15.11 1-7.54-1.77-13.33-7.27-16.63-12.18l8.12-7.48c2.85 4.8 8 8.81 12 9.75s7.38-.26 8.19-3.73-2.69-5.8-4.76-7.16-5.66-3.64-7.22-4.8a21 21 0 0 1-5.3-5.23c-1.76-2.64-2.86-6.08-1.71-11a15 15 0 0 1 8.1-10.11c3.53-1.8 8.67-2.34 14.7-.92s12.3 5.91 15 10.29l-7.21 7.3c-2.31-3.73-6.45-7.09-10.37-8s-7.14-.09-7.88 3.08 1.91 5.06 4 6.52 5.58 3.69 7.08 4.76a21.51 21.51 0 0 1 6.24 5.93 13.94 13.94 0 0 1 1.72 11 16.2 16.2 0 0 1-8.96 10.98zM552.51 1046.86l-12.5-1 4.38-53.26 12.5 1zM647.47 1044.32l-12.81 1.07-26.38-34.19s.76 6.39 1.23 12l2 24.09-12.2 1-4.42-53.26 13.36-1.11 25.81 33.92s-.73-6-1.19-11.63l-2-24.16 12.2-1zM728.39 1025.56l-34 9.58-14.49-51.4 33.33-9.39 2.7 9.62-21.32 6 3 10.51 20.13-5.74 2.71 9.62-20.13 5.67 3.36 11.93 22-6.2zM795.88 993.34c-2.1 4.36-6 7.77-11.13 10.26-7 3.36-14.93 2.72-20.59 1l1.62-10.92c5.23 2 11.78 1.8 15.48 0s5.58-4.83 4-8-5.75-2.82-8.21-2.58-6.7.73-8.64.8a20.59 20.59 0 0 1-7.4-.73c-3-1-6-2.93-8.24-7.47a15 15 0 0 1-.03-12.96c1.62-3.62 5.27-7.27 10.85-10s13.28-3.12 18.14-1.42l-1 10.2c-4.13-1.45-9.47-1.46-13.09.29s-5.61 4.42-4.2 7.35 4.67 2.74 7.24 2.53 6.66-.63 8.49-.74a21.45 21.45 0 0 1 8.58.68 14 14 0 0 1 8.24 7.47 16.18 16.18 0 0 1-.11 14.24zM862.3 951.38c-1.34 4.66-4.56 8.68-9.23 12-6.3 4.5-14.25 5.22-20.12 4.46l-.27-11c5.5 1 11.92-.22 15.27-2.61s4.67-5.72 2.6-8.62-6.14-1.8-8.52-1.14-6.48 1.86-8.38 2.26a20.83 20.83 0 0 1-7.42.54c-3.15-.41-6.46-1.86-9.39-6a15 15 0 0 1-2.25-12.76c1-3.84 3.95-8.06 9-11.66s12.55-5.34 17.63-4.5l.73 10.23c-4.32-.72-9.58.18-12.86 2.52s-4.77 5.31-2.88 8 5.07 1.9 7.56 1.26 6.46-1.75 8.25-2.17a21.3 21.3 0 0 1 8.57-.79 13.94 13.94 0 0 1 9.39 6 16.18 16.18 0 0 1 2.32 13.98z"/></g><g fill="#d7e048"><path d="M753.49 431.03h-1c-.48 13.41-5.61 48.27-8.77 72.39h19c-3.87-27.78-7.28-54.1-9.23-72.39zM247.09 549.74c9.75 0 14.14-6.1 14.14-20.23v-81.9c0-12.92-3.9-20-14.14-20-9 0-13.89 6.58-13.89 20.23v81.9c0 13.66 4.87 20 13.89 20zM864.14 453.74v-5.6c0-12.68-2.44-20.24-16.82-20.24h-7.08v48.51h5.86c13.16-.04 18.04-4.91 18.04-22.67z"/><path d="M1034.33 585.74V372.3l-916.59-19.86 48.61 235.1zm-131-178.63h77.52v23.4h-26.31v139.46h-25.11V430.55h-26.08zm-88.21 0h34.86c24.86 0 39.49 10 39.49 39.24v6.09c0 25.11-10.49 31.45-16.57 34.13 9.26 4.39 14.86 11.21 14.86 33.39 0 13.65-.25 40.22 1.46 50h-24.36c-1.94-9.75-1.7-36.56-1.7-48.51 0-19.74-2.44-24.37-17.06-24.37h-5.86v72.88h-25.1zm-79.44 0h35.36l27.3 162.82h-26.32l-6.34-43.63h-25.11l-5.61 43.63h-25.58zm-149.39 0h37.54c6.33 41.43 12.67 87.75 14.86 110.66h.25c2.68-23.16 11.7-71.66 18-110.66h36.32v162.86h-23.9v-60.69c0-27.54.25-61.92.74-80.68h-.25c-3.65 28.27-12.67 94.33-19.74 141.37h-23.58c-5.37-42.41-14.38-111.88-18.28-141.62h-.51c.49 19 1.46 55.82 1.46 83.85v57.77h-22.89zm-96.51 114.8h25.1v10.24c0 11.95 3.67 18.77 13.17 18.77 9.75 0 12.43-9.27 12.43-19.75 0-17.55-3.9-22.91-21.21-36.81-17.54-13.88-27-22.66-27-46.79 0-21.45 6.58-43.15 36.07-43.15 30 0 34.61 21.46 34.61 39.25v8.78h-24.89v-8.01c0-11.46-2-18.28-10.23-18.28s-10.48 7.07-10.48 17.79c0 11.7 2.19 17.31 16.56 27.79 24.38 18 31.94 28.27 31.94 55.57 0 23.16-8 45.1-38.51 45.1-30.23 0-37.54-19.26-37.54-40.71zm-87.49-114.8h77.52v23.4H453.5v139.46h-25.11V430.55h-26.08zm-93.08 0h25.13v123.86c0 11.94 3.89 18.77 13.65 18.77 10 0 13.16-7.8 13.16-18.77V407.15h25.1v123.34c0 25.84-11.45 41.92-38.76 41.92-25.83 0-38.26-14.14-38.26-41.92zm-101.6 43.18c0-31.2 15.59-45.58 40-45.58 24.62 0 39.24 14.38 39.24 45.58v76.05c0 31.2-13.16 46.06-40.95 46.06-26.32 0-38.26-15.1-38.26-45.58zM932.61 639.58h-7.08v48.51h5.86c13.16 0 18-4.87 18-22.66v-5.61c.04-12.68-2.4-20.24-16.78-20.24z"/><path d="M1040.27 593.86l-922.53 14.65 47 200.55 886.73 7.79zM376.99 729.53c0 24.86-4.14 52.16-42.9 52.16h-34.86V618.87h34.86c34.61 0 42.9 17.79 42.9 48zm48.75 52.21h-25.1V618.87h25.1zm56.78 2.44c-30.23 0-37.54-19.26-37.54-40.7v-9.75h25.1v10.23c0 12 3.66 18.77 13.16 18.77 9.76 0 12.44-9.26 12.44-19.74 0-17.55-3.9-22.91-21.21-36.81-17.54-13.89-27-22.67-27-46.8 0-21.45 6.58-43.15 36.07-43.15 30 0 34.61 21.46 34.61 39.26v8.77h-24.93v-8.05c0-11.46-2-18.28-10.23-18.28S472.5 645 472.5 655.72c0 11.7 2.2 17.31 16.57 27.79 24.38 18 31.94 28.28 31.94 55.58 0 23.1-8.05 45.04-38.51 45.04zm114.28-2.44l-6.34-43.63h-25.1l-5.62 43.63h-25.58l26.32-162.82h35.35l27.29 162.82zm78.22 2.44c-30.23 0-37.54-19.26-37.54-40.7v-9.75h25.1v10.23c0 12 3.66 18.77 13.17 18.77 9.75 0 12.43-9.26 12.43-19.74 0-17.55-3.9-22.91-21.21-36.81-17.54-13.89-27.06-22.67-27.06-46.8 0-21.45 6.59-43.15 36.08-43.15 30 0 34.61 21.46 34.61 39.26v8.77h-24.86v-8.05c0-11.46-2-18.28-10.24-18.28s-10.48 7.07-10.48 17.79c0 11.7 2.2 17.31 16.57 27.79 24.38 18 31.94 28.28 31.94 55.58 0 23.1-8.05 45.04-38.51 45.04zm126.49-141.91h-26.33v139.47h-25.11V642.27h-26.08v-23.4h77.52zm79 139.42h-63.42V618.87h62.88v23.4h-37.78v41.92h35.83v23.16h-35.83v51.18h41.43zm94.23-117.48c0 25.1-10.49 31.44-16.58 34.12 9.26 4.39 14.87 11.21 14.87 33.39 0 13.65-.25 40.22 1.46 50h-24.34c-1.94-9.75-1.7-36.56-1.7-48.5 0-19.75-2.44-24.38-17.06-24.38h-5.86v72.9h-25.1V618.87h34.86c24.86 0 39.49 10 39.49 39.24z"/><path d="M577.3 642.74c-.49 13.41-5.61 48.27-8.78 72.4h19c-3.91-27.79-7.32-54.11-9.27-72.4zM332.39 640.56h-8.06v119.69h8.06c16.56 0 19-10.49 19-27.31v-68c.01-14.87-2.44-24.38-19-24.38z"/></g><path d="M233.2 447.85c0-13.65 4.87-20.23 13.89-20.23 10.24 0 14.14 7.07 14.14 20v81.9c0 14.13-4.39 20.23-14.14 20.23-9 0-13.89-6.34-13.89-20v-81.9m53.62 2.44c0-31.2-14.62-45.58-39.24-45.58-24.38 0-40 14.38-40 45.58v76.53c0 30.48 11.94 45.58 38.26 45.58 27.79 0 40.95-14.86 40.95-46.06v-76.05m22.41-43.14v123.34c0 27.78 12.43 41.92 38.26 41.92 27.31 0 38.76-16.08 38.76-41.92V407.15h-25.1v123.82c0 11-3.17 18.77-13.16 18.77-9.76 0-13.65-6.83-13.65-18.77V407.15zm119.19 162.82h25.11V430.55h26.33v-23.4h-77.52v23.4h26.08zm501 0h25.15V430.55h26.33v-23.4h-77.52v23.4h26.08zm-439.63-48v9.77c0 21.45 7.31 40.71 37.54 40.71 30.47 0 38.51-21.94 38.51-45.1 0-27.3-7.56-37.53-31.94-55.57-14.37-10.48-16.56-16.09-16.56-27.79 0-10.72 2.19-17.79 10.48-17.79s10.23 6.82 10.23 18.28v8h24.86v-8.74c0-17.79-4.63-39.25-34.61-39.25-29.49 0-36.07 21.7-36.07 43.15 0 24.13 9.51 32.91 27 46.79 17.31 13.9 21.21 19.26 21.21 36.81 0 10.48-2.68 19.75-12.43 19.75-9.5 0-13.17-6.82-13.17-18.77v-10.27zm179.62 48h23.9V407.15H657c-6.34 39-15.36 87.5-18 110.66h-.26c-2.19-22.91-8.53-69.23-14.86-110.66h-37.57v162.82h22.91V512.2c0-28-1-64.84-1.46-83.85h.49c3.9 29.74 12.91 99.21 18.28 141.62h23.64c7.07-47 16.09-113.1 19.74-141.37h.25c-.49 18.76-.74 53.14-.74 80.68zm74.36-66.55c3.16-24.12 8.29-59 8.77-72.39h1c2 18.29 5.36 44.61 9.26 72.39zm21.94 22.92l6.34 43.63h26.32l-27.3-162.82h-35.3l-26.36 162.82h25.58l5.61-43.63zm74.56-98.48h7.08c14.38 0 16.82 7.56 16.82 20.24v5.64c0 17.8-4.88 22.67-18 22.67h-5.9zm-25.1 142.11h25.1v-72.88h5.86c14.62 0 17.06 4.63 17.06 24.37 0 11.95-.24 38.76 1.7 48.51h24.38c-1.71-9.75-1.46-36.32-1.46-50 0-22.18-5.6-29-14.86-33.39 6.08-2.68 16.57-9 16.57-34.13v-6.09c0-29.25-14.63-39.24-39.49-39.24h-34.86zM489.07 683.46c-14.37-10.48-16.57-16.09-16.57-27.79 0-10.72 2.2-17.79 10.49-17.79s10.23 6.82 10.23 18.28v8.05h24.86v-8.77c0-17.8-4.63-39.26-34.61-39.26-29.49 0-36.07 21.7-36.07 43.15 0 24.13 9.51 32.91 27 46.8 17.31 13.9 21.21 19.25 21.21 36.81 0 10.48-2.68 19.74-12.44 19.74-9.5 0-13.16-6.82-13.16-18.77v-10.23h-25.1v9.75c0 21.44 7.31 40.7 37.54 40.7 30.46 0 38.51-21.94 38.51-45.09.05-27.3-7.51-37.54-31.89-55.58zm-155-64.59h-34.84v162.87h34.86c38.76 0 42.9-27.3 42.9-52.16v-62.69c0-30.23-8.25-48.02-42.9-48.02zm17.33 114.07c0 16.82-2.45 27.31-19 27.31h-8.06V640.56h8.06c16.56 0 19 9.51 19 24.37zm49.22-114.07h25.12v162.87h-25.1zm323.37 0h77.52v23.4h-26.33v139.47h-25.11V642.27h-26.08zm118.2 139.66h41.43l-3.16 23.21h-63.37V618.87h62.88v23.4h-37.78v41.92h35.83v23.16h-35.83zm132.55-94.32v-6.1c0-29.25-14.63-39.24-39.49-39.24h-34.82v162.87h25.1v-72.93h5.86c14.62 0 17.06 4.63 17.06 24.38 0 11.94-.24 38.75 1.7 48.5h24.38c-1.71-9.75-1.46-36.32-1.46-50 0-22.18-5.61-29-14.87-33.39 6.09-2.65 16.54-8.99 16.54-34.09zm-25.35 1.22c0 17.79-4.88 22.66-18 22.66h-5.86v-48.51h7.08c14.38 0 16.82 7.56 16.82 20.24zm-389-46.56l-26.23 162.87h25.58l5.61-43.63h25.1l6.35 43.63h26.32l-27.29-162.87zm8 96.28c3.17-24.13 8.29-59 8.78-72.4h1c2 18.29 5.36 44.61 9.27 72.4zm145 23.89c0 23.15-8 45.09-38.51 45.09-30.23 0-37.54-19.26-37.54-40.7v-9.75h25.1v10.23c0 12 3.66 18.77 13.17 18.77 9.75 0 12.43-9.26 12.43-19.74 0-17.56-3.9-22.91-21.21-36.81-17.54-13.89-27.06-22.67-27.06-46.8 0-21.45 6.59-43.15 36.08-43.15 30 0 34.61 21.46 34.61 39.26v8.77h-24.72v-8.05c0-11.46-2-18.28-10.24-18.28s-10.48 7.07-10.48 17.79c0 11.7 2.2 17.31 16.57 27.79 24.38 18.04 31.94 28.28 31.94 55.58z" fill="#333"/></svg>