<svg data-name="Layer 1" xmlns="http://www.w3.org/2000/svg" viewBox="0 0 67.47 88.67"><path d="M25.09 80.64a3.49 3.49 0 0 1-3.45-3.38 3.59 3.59 0 0 1 3.45-3.6 3.48 3.48 0 0 1 3.5 3.51 3.42 3.42 0 0 1-3.5 3.47zm19.07-17.26V45.67h-3v17.71a3.34 3.34 0 0 1-3.33 3.34H12.45a3.34 3.34 0 0 1-3.33-3.34V16.73a3.34 3.34 0 0 1 3.33-3.34h25.33a3.34 3.34 0 0 1 3.33 3.34v2.41h3v-2.41a6.38 6.38 0 0 0-6.38-6.38H12.45a6.38 6.38 0 0 0-6.38 6.38v46.65a6.39 6.39 0 0 0 6.38 6.39h25.33a6.39 6.39 0 0 0 6.38-6.39zm6.07 14.46V48.09h-3v29.75a7.79 7.79 0 0 1-7.82 7.78H10.82a7.79 7.79 0 0 1-7.81-7.78v-67a7.78 7.78 0 0 1 7.78-7.77h28.62a7.78 7.78 0 0 1 7.78 7.77v6.41h3v-6.43A10.83 10.83 0 0 0 39.41 0H10.82A10.83 10.83 0 0 0 .01 10.82v67a10.84 10.84 0 0 0 10.81 10.85h28.59a10.84 10.84 0 0 0 10.82-10.83zm17.23-45.16a16.84 16.84 0 1 0-16.83 16.84 16.85 16.85 0 0 0 16.83-16.84zm-3 0a13.79 13.79 0 1 1-13.83-13.79 13.81 13.81 0 0 1 13.79 13.79zm-6.52-5.16l-2.15-2.16-12.48 12.48L45.46 40zm0 10.32L45.46 25.36l-2.15 2.16L55.79 40z" fill="#d9e842"/></svg>