<svg data-name="Layer 1" xmlns="http://www.w3.org/2000/svg" viewBox="0 0 81.33 102.87"><g fill="#d9e842"><path d="M55.07 64.19V34.7a23.41 23.41 0 1 0-46.82 0v28.68A21.89 21.89 0 0 0 0 80.62l1.49 21a1.39 1.39 0 0 0 1.38 1.3h56.65a1.39 1.39 0 0 0 1.42-1.3l1.5-21a22 22 0 0 0-7.37-16.43zm-44-29.49a20.63 20.63 0 1 1 41.25 0v27.24a19.71 19.71 0 0 0-6.67-2.82c-.81-.21-1.59-.36-2.35-.5-3.31-.61-5.39-1-5.67-6.47a13.78 13.78 0 0 0 8.68-12.79V32.5a13.8 13.8 0 0 0-5.85-11.26 1.42 1.42 0 0 0-1.11-.22 1.4 1.4 0 0 0-.91.68 14.62 14.62 0 0 1-12.79 7.52 14.4 14.4 0 0 1-6.29-1.44 1.4 1.4 0 0 0-1.93.87 13.74 13.74 0 0 0-.56 3.85v6.86a13.8 13.8 0 0 0 8.71 12.8c-.37 5.28-3 5.79-6.37 6.41a20.06 20.06 0 0 0-2.42.55 21.86 21.86 0 0 0-5.75 2.34zm20.62 41.22l-8.52-15.5c2.42-.93 4.62-2.84 5.12-7.5a14.09 14.09 0 0 0 2.36.22h1.86a14.21 14.21 0 0 0 2.37-.22c.47 5.34 2.77 7.07 5.35 7.86zm.82-25.56h-1.86a11 11 0 0 1-11-11V32.5a10.08 10.08 0 0 1 .12-1.54 17.06 17.06 0 0 0 5.88 1 17.42 17.42 0 0 0 14.29-7.51 11 11 0 0 1 3.52 8.05v6.86a11 11 0 0 1-10.95 11zM2.77 80.54a19.12 19.12 0 0 1 7.71-15.38 19.75 19.75 0 0 1 7.07-3.37 20.14 20.14 0 0 1 2.17-.49l.69-.13 9.88 18v21H4.17zm55.45 19.55H33.07v-21l10-17.73c.6.12 1.22.23 1.83.4a16.16 16.16 0 0 1 7.88 4.06 19.15 19.15 0 0 1 6.84 14.57zM69.54 38.1a3.28 3.28 0 0 0-3.15 3.29 3.19 3.19 0 0 0 3.15 3.08 3.12 3.12 0 0 0 3.2-3.17 3.18 3.18 0 0 0-3.2-3.2zM69.94 0A11.37 11.37 0 0 0 58.6 11.36h2.78a8.58 8.58 0 1 1 8.56 8.58 1.39 1.39 0 0 0-1.39 1.39v11.65h2.78V22.62A11.36 11.36 0 0 0 69.94 0z"/></g></svg>