<svg data-name="Layer 1" xmlns="http://www.w3.org/2000/svg" viewBox="0 0 97.44 101.86"><g fill="#d9e842"><path d="M90.66 47.37h-22V21.22a8 8 0 0 0-8-8H27.77a8 8 0 0 0-8 8v13.61H8a8 8 0 0 0-8 8v57.29a1.72 1.72 0 0 0 1.72 1.72h94a1.72 1.72 0 0 0 1.72-1.72v-46a6.79 6.79 0 0 0-6.78-6.75zm-26.35 0a6.75 6.75 0 0 0-5.05 2.27H48.88v-5.1h16.3v2.83zm-15.43 5.75h8.74a6.24 6.24 0 0 0-.1 1.06v4h-8.64zm0 8.55h8.64v5.1h-8.64zm0 8.54h8.64v28.2h-8.64zM23.2 21.22a4.58 4.58 0 0 1 4.57-4.58H60.6a4.58 4.58 0 0 1 4.58 4.58v19.9H48.67a8 8 0 0 0-7.82-6.26H23.2zm6.11 77.19v-15.8a.2.2 0 0 1 .2-.2h6.77a.2.2 0 0 1 .2.2v15.8zm10.62 0v-15.8a3.66 3.66 0 0 0-3.65-3.65h-6.77a3.66 3.66 0 0 0-3.65 3.65v15.8H3.45V42.86A4.58 4.58 0 0 1 8 38.28h32.85a4.58 4.58 0 0 1 4.58 4.58v55.55zm54.06 0H61V54.12a3.34 3.34 0 0 1 3.34-3.33h26.32A3.33 3.33 0 0 1 94 54.12z"/><path d="M67.76 57.17h6.33v6.33h-6.33zM80.89 57.17h6.33v6.33h-6.33zM67.76 69.83h6.33v6.33h-6.33zM80.89 69.83h6.33v6.33h-6.33zM67.76 82.43h6.33v6.33h-6.33zM12.42 46.52h6.33v6.33h-6.33zM12.42 59.03h6.33v6.33h-6.33zM12.42 71.55h6.33v6.33h-6.33zM12.42 84.07h6.33v6.33h-6.33zM80.89 82.43h6.33v6.33h-6.33z"/></g><path d="M78.71 26.68a7.45 7.45 0 1 0 14.9 0c0-4.12-2.1-7.18-7.45-7.45s-7.45-3.34-7.45-7.45a7.45 7.45 0 1 1 14.9 0M86.16 0v38.45" fill="none" stroke="#d9e842" stroke-miterlimit="10" stroke-width="2.5"/></svg>