<svg data-name="Layer 1" xmlns="http://www.w3.org/2000/svg" viewBox="0 0 19.96 19.96"><path d="M20 18.43a1.49 1.49 0 0 1-.45 1.08 1.51 1.51 0 0 1-1.08.45 1.44 1.44 0 0 1-1.08-.45l-4.12-4.1a8.2 8.2 0 0 1-4.78 1.48 8.32 8.32 0 0 1-3.28-.66 8.67 8.67 0 0 1-2.71-1.8 8.54 8.54 0 0 1-1.79-2.7 8.36 8.36 0 0 1 0-6.56A8.19 8.19 0 0 1 5.17.67a8.36 8.36 0 0 1 6.56 0 8.4 8.4 0 0 1 2.7 1.8 8.51 8.51 0 0 1 1.8 2.7 8.32 8.32 0 0 1 .66 3.28 8.2 8.2 0 0 1-1.48 4.78l4.11 4.12a1.46 1.46 0 0 1 .48 1.08zm-7.72-6.19a5.17 5.17 0 0 0 1.58-3.79 5.19 5.19 0 0 0-1.58-3.8 5.17 5.17 0 0 0-3.83-1.58 5.19 5.19 0 0 0-3.8 1.58 5.19 5.19 0 0 0-1.58 3.8 5.17 5.17 0 0 0 1.58 3.79 5.15 5.15 0 0 0 3.8 1.58 5.13 5.13 0 0 0 3.79-1.58z" fill="#919191"/></svg>