<svg data-name="Layer 1" xmlns="http://www.w3.org/2000/svg" viewBox="0 0 18.91 15.36"><path d="M18.91 1.83a8.24 8.24 0 0 1-2 2v.51a11.19 11.19 0 0 1-.45 3.11 11.36 11.36 0 0 1-1.39 3 12.14 12.14 0 0 1-2.21 2.53 10 10 0 0 1-3.04 1.72 11.43 11.43 0 0 1-3.87.65A10.75 10.75 0 0 1 0 13.62a8.7 8.7 0 0 0 .93.05 7.54 7.54 0 0 0 4.81-1.66 3.71 3.71 0 0 1-2.27-.77A3.85 3.85 0 0 1 2.1 9.33a5 5 0 0 0 .73.06 3.86 3.86 0 0 0 1-.14 3.83 3.83 0 0 1-2.22-1.33 3.74 3.74 0 0 1-.84-2.47 3.81 3.81 0 0 0 1.75.5 4 4 0 0 1-1.26-1.43A3.88 3.88 0 0 1 1.32.7a10.91 10.91 0 0 0 3.53 2.87 10.74 10.74 0 0 0 4.46 1.2 4 4 0 0 1-.1-.89 3.71 3.71 0 0 1 1.14-2.74 3.87 3.87 0 0 1 5.57.09 7.6 7.6 0 0 0 2.46-.94 3.82 3.82 0 0 1-1.71 2.14 7.77 7.77 0 0 0 2.24-.6z" fill="#919191"/></svg>