<svg data-name="Layer 1" xmlns="http://www.w3.org/2000/svg" viewBox="0 0 18.43 18.43"><path d="M18.43 9.23q0 2.75-.06 3.81a5.63 5.63 0 0 1-1.49 3.86 5.64 5.64 0 0 1-3.87 1.49c-.7 0-2 .06-3.8.06s-3.1 0-3.8-.06a5.61 5.61 0 0 1-3.86-1.49 5.59 5.59 0 0 1-1.49-3.88Q0 11.96 0 9.23c0-1.83 0-3.1.06-3.8a5.59 5.59 0 0 1 1.49-3.88A5.57 5.57 0 0 1 5.41.06c.7 0 2-.06 3.8-.06s3.1 0 3.8.06a5.59 5.59 0 0 1 3.87 1.49 5.63 5.63 0 0 1 1.49 3.86c.04.7.06 1.97.06 3.82zm-8.3-7.58H5.87a9.3 9.3 0 0 0-1.23.12 4.38 4.38 0 0 0-.86.23 3.06 3.06 0 0 0-1.75 1.78 4.46 4.46 0 0 0-.23.85 9.84 9.84 0 0 0-.12 1.24v6.68a9.47 9.47 0 0 0 .12 1.24 4.58 4.58 0 0 0 .23.86 3.13 3.13 0 0 0 1.75 1.75 4.44 4.44 0 0 0 .86.22 9.3 9.3 0 0 0 1.23.12h6.68a9.47 9.47 0 0 0 1.24-.12 4.86 4.86 0 0 0 .86-.22 3.22 3.22 0 0 0 1.75-1.75 4.64 4.64 0 0 0 .22-.86 9.47 9.47 0 0 0 .12-1.24v-2.42-.92-2.18-1.16a9.84 9.84 0 0 0-.12-1.24 4.52 4.52 0 0 0-.22-.85 3.13 3.13 0 0 0-1.75-1.75 4.8 4.8 0 0 0-.86-.23 9.47 9.47 0 0 0-1.24-.12H11.4zm2.43 4.22a4.54 4.54 0 0 1 1.38 3.36 4.71 4.71 0 0 1-4.71 4.71 4.69 4.69 0 0 1-4.74-4.71 4.69 4.69 0 0 1 4.74-4.74 4.57 4.57 0 0 1 3.33 1.38zm-1.18 5.51a3.07 3.07 0 0 0 0-4.34 3.07 3.07 0 0 0-4.34 0 3.07 3.07 0 0 0 0 4.34 3.07 3.07 0 0 0 4.34 0zm3.53-7.87a1.06 1.06 0 0 1 .32.78 1 1 0 0 1-.32.78 1.1 1.1 0 0 1-1.88-.78 1.1 1.1 0 0 1 1.88-.78z" fill="#919191"/></svg>