<svg data-name="Layer 1" xmlns="http://www.w3.org/2000/svg" viewBox="0 0 136 66.16"><g fill="#333"><path d="M32.98 41.3c0-10.93.1-24.57.29-32h-.1c-1.45 11.22-5 37.43-7.83 56.1h-9.38C13.83 48.57 10.25 21.01 8.7 9.21h-.19c.19 7.54.58 22.14.58 33.27v22.9H0V.81h14.89c2.52 16.44 5 34.82 5.9 43.91h.1c1.06-9.23 4.64-28.47 7.16-43.91h14.41v64.57h-9.48zM71.35 15.96V14.6c0-3.48-.68-6.19-4.54-6.19s-4.94 3.1-4.94 10.74v8.12c1.48-2.46 4.29-4.54 9.12-4.54 8.81 0 11.22 7.15 11.22 15.18v10.35c0 10.06-3.19 17.9-15.28 17.9-13.06 0-15.09-9.58-15.09-17.8V20.21c0-8.8 1-20.21 15.09-20.21 12.67 0 14 9.28 14 14.41v1.55zm.68 34.33v-11.8c0-3.77-1.07-6.77-4.74-6.77s-5.42 2.9-5.42 7.35v11.32c0 4.84 1.65 7.45 5.13 7.45s5.06-2.42 5.06-7.55zM89.18 65.38V51.07h10v14.31zM122.17 65.38v-16h-18.38v-7.7L117.71.81h13.64v40.1H136l-.78 8.42h-3.87v16zm0-24.47V28.53c0-6.48.19-13.06.29-19.54h-.11c-2.71 10.64-5.71 22-8.9 31.92z"/></g></svg>