<svg data-name="Layer 1" xmlns="http://www.w3.org/2000/svg" viewBox="0 0 147.29 77.33"><g fill="#333"><path d="M7.15 69.3l-1 7.61H1.71L6.3 48.53h6.17l4.75 28.38h-4.59l-1.1-7.61zm3.87-4c-.68-4.83-1.31-9.42-1.61-12.61h-.17c-.09 2.34-1 8.41-1.53 12.62zM29.71 68.54v1.78c0 2.08.64 3.27 2.3 3.27s2.16-1.61 2.16-3.44c0-3.06-.68-4-3.69-6.41s-4.72-4-4.72-8.16c0-3.74 1.15-7.52 6.29-7.52s6 3.74 6 6.84v1.53h-4.26v-1.4c0-2-.34-3.19-1.79-3.19s-1.82 1.24-1.82 3.1c0 2 .38 3 2.89 4.85 4.24 3.14 5.56 4.93 5.56 9.68 0 4-1.4 7.86-6.71 7.86s-6.54-3.35-6.54-7.09v-1.7zM54.81 68.41v1.11c0 3.27-.55 7.81-6.54 7.81-5.26 0-6.37-3.31-6.37-7.6V55.41c0-4.37 2-7.3 6.46-7.3 5.35 0 6.35 3.52 6.35 7.47v1.25h-4.4v-1.76c0-1.91-.47-3-2-3s-2 1-2 3v15c0 1.87.38 3.31 2 3.31s2-1.27 2-3.35v-1.62zM68.79 63.95h-6.24v8.88h7.22l-.55 4H58.17v-28.3h11v4.08h-6.62v7.3h6.24zM72.71 76.91V48.53h5l3.78 14.49c.51 2.08.81 3.78 1.07 5-.21-3.48-.21-7.48-.21-12.11v-7.38h4v28.38h-4.77l-4.17-16.57c-.38-1.49-.59-2.72-.76-3.57.21 3.44.17 7.27.17 12.36v7.78zM94.96 69.3l-1 7.61h-4.44l4.59-28.38h6.16l4.75 28.38h-4.58l-1.11-7.61zm3.86-4c-.68-4.84-1.27-9.43-1.61-12.62h-.17c-.09 2.34-1 8.41-1.53 12.62zM107.96 48.53h6.07c4.33 0 6.88 1.74 6.88 6.84v1.06c0 4.38-1.83 5.48-2.89 6 1.62.76 2.59 2 2.59 5.82a78.85 78.85 0 0 0 .26 8.71h-4.25a67.62 67.62 0 0 1-.3-8.46c0-3.44-.42-4.24-3-4.24h-1v12.7h-4.37zm4.37 12.06h1c2.29 0 3.14-.85 3.14-4v-1c0-2.21-.42-3.53-2.93-3.53h-1.23zM129.36 48.53v28.38h-4.37V48.53zM147.29 56.05V69.3c0 5.44-2.29 8-7.14 8-4.58 0-6.67-2.63-6.67-7.94V56.05c0-5.44 2.72-7.94 7-7.94s6.81 2.5 6.81 7.94zm-9.35-.43V69.9c0 2.38.85 3.48 2.43 3.48s2.46-1.06 2.46-3.52V55.58c0-2.25-.68-3.48-2.46-3.48-1.58 0-2.43 1.15-2.43 3.52z"/></g><g fill="none" stroke="#333" stroke-miterlimit="10" stroke-width="5"><path d="M1.42 30.81L35.93 6.93l22.58 22.86 15.75-16.03 14.17 16.03 27.3-26"/><path d="M115.5 14.33l1.36-11.47-11.48 1.35"/></g></svg>