<svg data-name="Layer 1" xmlns="http://www.w3.org/2000/svg" viewBox="0 0 118.01 66.16"><g fill="#333"><path d="M28.36.81v8c-8.43 16.14-13.46 35.2-15.49 56.57H2.42c1.74-20.89 8.8-42.27 15.48-55.33H0V.81zM33.95 65.38v-.87c.1-12.86 4.07-18.86 11.42-29.6 5.51-8.12 7.06-11 7.06-17.79 0-5.42-.48-8.52-4.26-8.52-3.29 0-4.54 2.33-4.54 7.07v3.28h-9.48v-3.57C34.15 7.93 36.47 0 48.66 0c11.12 0 14 7.54 14 16.54 0 10.44-2.61 13.92-8.51 22.63-4.35 6.58-8.13 12-8.71 17.41h18.69l-1.35 8.8zM91.6 13.34v10.55c0 7.83-3.67 12-10.35 12-5.8 0-10.35-3.19-10.35-11.41V13.25c0-8.22 4.55-11.51 10.45-11.51 6.38 0 10.25 3.96 10.25 11.6zm-14.6 52l29.79-62.83h5.12l-30 62.87zm.77-52.52v11.65c0 3.19 1 5.12 3.48 5.12 2.81 0 3.49-2.22 3.49-5.22v-11.7c0-3.1-1-4.74-3.39-4.74-2.71 0-3.58 1.88-3.58 4.93zm40.24 30.76v10.58c0 7.84-3.68 12-10.25 12-6.19 0-10.35-3.2-10.35-11.42V43.52c0-8 4.45-11.51 10.44-11.51 6.29 0 10.16 3.8 10.16 11.61zm-13.74-.49v11.65c0 3.1.87 5.13 3.49 5.13s3.48-2.23 3.48-5.22V42.81c0-3.09-1.07-4.64-3.48-4.64-2.71.03-3.49 1.87-3.49 4.96z"/></g></svg>