<svg data-name="Layer 1" xmlns="http://www.w3.org/2000/svg" viewBox="0 0 86.7 86.7"><circle cx="43.35" cy="43.35" r="43.35" fill="#d9e842"/><g fill="#333"><path d="M29.64 75.5a.67.67 0 0 1-.66-.67V29.64a.66.66 0 0 1 .51-.64l36.19-8.78a.65.65 0 0 1 .57.13.64.64 0 0 1 .25.52V65.4a.65.65 0 0 1-.5.6l-36.19 9.47a.51.51 0 0 1-.17.03zm.67-45.34V74l34.86-9.08V21.71z"/><path d="M29.65 30.3a9.46 9.46 0 0 1-9.45-9.45h1.33A8.13 8.13 0 0 0 29.65 29z"/><path d="M29.65 75.5a9.46 9.46 0 0 1-9.45-9.45v-45.4a.66.66 0 0 1 .51-.65l36.2-8.77a.63.63 0 0 1 .56.12.68.68 0 0 1 .26.52V13H56.4v-.28l-34.87 8.45v44.88a8.13 8.13 0 0 0 8.12 8.12z"/><path d="M55.767 12.645l.94-.94 8.754 8.753-.94.94z"/><text transform="matrix(1.09 -.26 -.1 .99 33.8 45.98)" font-size="10.303" font-family="AcuminProExtraCond-Bold,Acumin Pro ExtraCondensed" font-weight="700" letter-spacing=".024em">V<tspan x="4.04" y="0" letter-spacing=".02em">O</tspan><tspan x="8.23" y="0" letter-spacing=".016em">L</tspan><tspan x="11.63" y="0" letter-spacing=".02em">UME</tspan><tspan font-size="15.278" letter-spacing=".02em"><tspan x="5.3" y="19.88"> </tspan><tspan x="9.92" y="19.88" font-size="23.857">II</tspan></tspan></text><path d="M24.95 28.36l-.12-.48 37.71-9.14.12.48-37.71 9.14zM23.37 26.78l-.11-.49 37.7-9.14.12.49-37.71 9.14zM22.37 25.05l-.12-.48 37.71-9.15.12.49-37.71 9.14zM20.56 23.58l-.12-.49 37.71-9.14.11.49-37.7 9.14z"/></g></svg>